<svg width="200" height="31" viewBox="0 0 200 31" fill="none" xmlns="http://www.w3.org/2000/svg">
<path d="M31.7419 12.7814C31.2155 10.3603 30.0453 8.08224 28.3263 6.13228C30.2676 4.09538 32.5983 2.37021 35.214 1.03394C44.7422 20.1527 27.2766 28.9544 27.2766 28.9544H26.9778C31.1848 24.7271 32.832 19.1614 31.7419 12.7814Z" fill="url(#paint0_linear_109_358)"/>
<path d="M4.52184 19.0475C8.61119 19.173 12.609 20.1435 16.1898 21.8799C15.6653 20.9649 15.2617 20.0003 14.9867 19.005C13.3718 13.1206 15.6085 5.79177 17.9824 0.211914C21.3819 1.24574 25.0317 3.90113 27.5429 6.98138C29.0605 8.73527 30.0942 10.7736 30.5629 12.9365C31.8064 20.1804 29.3194 25.4275 25.282 29.0317L25.1043 29.1946C25.1043 29.1946 16.7066 30.4479 10.1419 27.7571C2.54353 24.6273 0.645966 19.4086 0.645966 19.4086C1.91257 19.1312 3.21703 19.0096 4.52184 19.0475Z" fill="url(#paint1_linear_109_358)"/>
<path d="M27.5431 6.98147L27.4058 6.81152C23.4333 11.5973 21.3393 17.3845 21.4386 23.3033C21.4358 25.373 21.6767 27.4374 22.1572 29.4638C23.1439 29.4267 24.1277 29.3439 25.1045 29.2159C25.1691 29.1663 25.2256 29.1026 25.2902 29.046C29.3276 25.4276 31.8065 20.1805 30.563 12.9366C30.0943 10.7737 29.0606 8.73536 27.5431 6.98147Z" fill="url(#paint2_linear_109_358)"/>
<path d="M59.1231 22.2726L58.1386 13.3164L54.7501 22.2726H51.5148L47.9731 13.2009L47.1201 22.2726H43.8849L45.6341 8.67531C46.0938 8.46485 46.8369 8.27203 47.3616 8.27203C48.5861 8.27203 49.504 8.59792 49.8755 9.55654L53.5272 19.1075L57.2655 8.71333C57.7253 8.44448 58.3367 8.27203 58.9265 8.27203C60.1726 8.27203 60.7841 8.65494 60.9822 10.0168L62.7314 22.2712H59.1231V22.2726Z" fill="#F778B9"/>
<path d="M73.0922 19.473L74.425 21.3333C73.069 22.0814 71.5613 22.4643 69.7254 22.4643C66.2486 22.4643 64.1945 20.6802 64.1945 17.6508C64.1945 14.3527 66.3585 12.377 70.0535 12.377C72.8306 12.377 74.4482 13.6045 74.4482 15.6182C74.4482 17.5558 72.4157 18.7059 69.0257 18.7059C68.5443 18.7059 68.0644 18.6678 67.583 18.6285C67.8229 19.6455 68.5443 20.2389 69.9653 20.2389C71.2114 20.2402 72.216 19.9714 73.0922 19.473ZM67.5164 16.9611C68.0195 16.9991 68.5226 17.0181 68.9808 17.0181C70.3802 17.0181 71.1665 16.5578 71.1665 15.7526C71.1665 15.1008 70.6418 14.6785 69.7238 14.6785C68.4994 14.6785 67.6913 15.5218 67.5164 16.9611Z" fill="#F778B9"/>
<path d="M76.9161 26.8757L75.4068 24.7466C76.0631 24.5362 76.543 23.9034 76.543 22.695V12.5696H79.9315V23.2327C79.933 25.3223 78.6219 26.3 76.9161 26.8757ZM78.2287 11.0733C79.3882 11.0733 80.1095 10.4976 80.1095 9.48194C80.1095 8.4853 79.3882 7.92859 78.2287 7.92859C77.0693 7.92859 76.348 8.4853 76.348 9.48194C76.348 10.4976 77.0693 11.0733 78.2287 11.0733Z" fill="#F778B9"/>
<path d="M81.635 17.4213C81.635 14.2576 83.7991 12.377 87.5157 12.377C91.2324 12.377 93.4197 14.2562 93.4197 17.4213C93.4197 20.5864 91.234 22.4657 87.5157 22.4657C83.7975 22.4657 81.635 20.5851 81.635 17.4213ZM89.9863 17.4213C89.9863 15.7336 89.0684 14.7179 87.5374 14.7179C86.0065 14.7179 85.0885 15.7349 85.0885 17.4213C85.0885 19.1091 86.0065 20.1058 87.5374 20.1058C89.0684 20.1058 89.9863 19.1091 89.9863 17.4213Z" fill="#F778B9"/>
<path d="M103.076 12.7029L102.092 15.3303C101.72 15.1198 101.239 14.9854 100.714 14.9854C99.3149 14.9854 98.4403 15.8096 98.4403 18.2075V22.2729H95.0518V12.7803C95.6416 12.5495 96.2763 12.377 96.866 12.377C97.784 12.377 98.3304 13.0668 98.3304 14.0648C99.14 12.8183 100.255 12.377 101.391 12.377C101.982 12.377 102.573 12.5114 103.076 12.7029Z" fill="#F778B9"/>
<path d="M109.9 22.4662C106.315 22.4662 104.171 20.5869 104.171 17.4028C104.171 14.2391 106.533 12.3788 109.615 12.3788C110.971 12.3788 113.157 12.8582 113.857 15.1027L111.386 15.9662C111.101 15.2181 110.576 14.7197 109.79 14.7197C108.412 14.7197 107.604 15.7178 107.604 17.4042C107.604 19.111 108.589 20.1076 110.183 20.1076C111.211 20.1076 112.392 19.7817 113.157 19.2834L114.228 21.3541C113.027 22.1213 111.409 22.4662 109.9 22.4662Z" fill="url(#paint3_linear_109_358)"/>
<path d="M114.683 17.42C114.683 14.2563 116.847 12.3757 120.564 12.3757C124.28 12.3757 126.468 14.2549 126.468 17.42C126.468 20.5851 124.28 22.4643 120.564 22.4643C116.847 22.4643 114.683 20.5837 114.683 17.42ZM123.034 17.42C123.034 15.7322 122.116 14.7166 120.585 14.7166C119.055 14.7166 118.137 15.7336 118.137 17.42C118.137 19.1078 119.055 20.1044 120.585 20.1044C122.116 20.1044 123.034 19.1078 123.034 17.42Z" fill="url(#paint4_linear_109_358)"/>
<path d="M138.834 16.0201V22.2715H135.446V16.5374C135.446 15.4254 134.9 14.7152 133.872 14.7152C132.407 14.7152 131.489 15.405 131.489 17.439V22.2715H128.101V12.7789C128.691 12.5481 129.325 12.3757 129.915 12.3757C130.79 12.3757 131.336 13.0084 131.379 13.948C132.319 12.7776 133.61 12.3757 134.965 12.3757C137.413 12.3757 138.834 13.7186 138.834 16.0201Z" fill="url(#paint5_linear_109_358)"/>
<path d="M151.919 9.61532L150.433 11.7254C149.494 11.1497 148.203 10.7287 146.913 10.7287C145.71 10.7287 144.989 11.189 144.989 11.9182C144.989 12.8958 146.257 13.2801 147.788 13.7594C149.865 14.4112 152.314 15.2367 152.314 17.9972C152.314 20.835 150.083 22.4658 146.302 22.4658C144.224 22.4658 142.3 21.9485 140.901 21.0278L142.015 18.8418C143.087 19.5709 144.639 20.0122 146.475 20.0122C147.896 20.0122 148.727 19.4949 148.727 18.6313C148.727 17.5382 147.46 17.135 145.994 16.695C143.916 16.0623 141.402 15.2761 141.402 12.3608C141.402 9.71444 143.435 8.2765 146.847 8.2765C148.574 8.27379 150.41 8.71508 151.919 9.61532Z" fill="#486DB7"/>
<path d="M163.68 16.0229V22.0639C163.09 22.2934 162.478 22.4672 161.866 22.4672C161.013 22.4672 160.467 21.8535 160.402 20.9709C159.505 22.083 158.303 22.4672 157.1 22.4672C154.892 22.4672 153.558 21.3361 153.558 19.4949C153.558 17.4623 155.504 16.2728 158.937 16.2728C159.374 16.2728 159.834 16.2728 160.293 16.2918C160.228 15.2368 159.79 14.604 158.369 14.604C157.408 14.604 156.423 14.8729 155.549 15.3712L154.193 13.53C155.592 12.7818 157.101 12.3799 158.937 12.3799C161.931 12.3785 163.68 13.7214 163.68 16.0229ZM160.29 17.9972C159.83 17.9782 159.416 17.9782 159.022 17.9782C157.58 17.9782 156.77 18.4385 156.77 19.2247C156.77 19.8385 157.163 20.2798 158.038 20.2798C159.197 20.2798 160.29 19.647 160.29 17.9972Z" fill="#486DB7"/>
<path d="M166.061 19.6467V7.71822C166.651 7.48874 167.286 7.31494 167.875 7.31494C168.882 7.31494 169.45 7.89066 169.45 8.69585V19.3969C169.45 19.8572 169.735 20.107 170.236 20.107C170.586 20.107 170.914 20.05 171.176 19.9726L171.614 21.8519C170.871 22.2741 170.104 22.4656 169.165 22.4656C167.221 22.4656 166.061 21.4499 166.061 19.6467Z" fill="#486DB7"/>
<path d="M184.637 13.7592V22.0637C184.047 22.2931 183.412 22.4669 182.823 22.4669C181.948 22.4669 181.423 21.8342 181.358 20.9326C180.484 22.0637 179.259 22.4669 177.991 22.4669C175.543 22.4669 174.122 21.1241 174.122 18.8225V12.7816C174.711 12.5507 175.346 12.3783 175.936 12.3783C176.942 12.3783 177.51 12.954 177.51 13.7592V18.2848C177.51 19.4159 178.056 20.107 179.084 20.107C180.44 20.107 181.248 19.4173 181.248 17.4226V12.7816C181.838 12.5507 182.473 12.3783 183.063 12.3783C184.069 12.3783 184.637 12.954 184.637 13.7592Z" fill="#486DB7"/>
<path d="M197.798 8.69562V22.0621C197.208 22.2916 196.573 22.4654 195.984 22.4654C195.131 22.4654 194.584 21.8326 194.519 20.95C193.58 22.0811 192.245 22.4654 190.913 22.4654C188.354 22.4654 186.671 20.7206 186.671 17.7469C186.671 14.3523 188.945 12.3767 192.793 12.3767C193.208 12.3767 193.778 12.3957 194.411 12.4147V7.71663C195.001 7.48716 195.635 7.31335 196.225 7.31335C197.228 7.31471 197.798 7.89043 197.798 8.69562ZM194.408 14.6022C193.905 14.5832 193.468 14.5832 193.097 14.5832C191.261 14.5832 190.101 15.7536 190.101 17.7469C190.101 19.2432 190.844 20.1245 192.179 20.1245C193.491 20.1245 194.409 19.4537 194.409 17.4197V14.6022H194.408Z" fill="#486DB7"/>
<defs>
<linearGradient id="paint0_linear_109_358" x1="36.9502" y1="3.54678" x2="22.5923" y2="10.0889" gradientUnits="userSpaceOnUse">
<stop stop-color="#B378FF"/>
<stop offset="1" stop-color="#F778B9"/>
</linearGradient>
<linearGradient id="paint1_linear_109_358" x1="27.8608" y1="2.84659" x2="8.19855" y2="26.1655" gradientUnits="userSpaceOnUse">
<stop stop-color="#B378FF"/>
<stop offset="1" stop-color="#F778B9"/>
</linearGradient>
<linearGradient id="paint2_linear_109_358" x1="29.9404" y1="8.85023" x2="17.9122" y2="14.6117" gradientUnits="userSpaceOnUse">
<stop stop-color="#B378FF"/>
<stop offset="1" stop-color="#F778B9"/>
</linearGradient>
<linearGradient id="paint3_linear_109_358" x1="113.222" y1="13.2867" x2="106.411" y2="21.0841" gradientUnits="userSpaceOnUse">
<stop stop-color="#B378FF"/>
<stop offset="1" stop-color="#F778B9"/>
</linearGradient>
<linearGradient id="paint4_linear_109_358" x1="125.289" y1="13.2837" x2="118.7" y2="22.1206" gradientUnits="userSpaceOnUse">
<stop stop-color="#B378FF"/>
<stop offset="1" stop-color="#F778B9"/>
</linearGradient>
<linearGradient id="paint5_linear_109_358" x1="137.761" y1="13.2663" x2="131.177" y2="21.4662" gradientUnits="userSpaceOnUse">
<stop stop-color="#B378FF"/>
<stop offset="1" stop-color="#F778B9"/>
</linearGradient>
</defs>
</svg>
