<svg width="48" height="34" viewBox="0 0 48 34" fill="none" xmlns="http://www.w3.org/2000/svg">
<path d="M39.8028 14.4123C39.1289 11.6577 37.6311 9.06576 35.4308 6.84714C37.9157 4.5296 40.899 2.56674 44.2471 1.04636C56.4432 22.7993 34.0871 32.8137 34.0871 32.8137H33.7047C39.0896 28.0039 41.1981 21.6714 39.8028 14.4123Z" fill="url(#paint0_linear_111_821)"/>
<path d="M4.96112 21.5418C10.1955 21.6847 15.3126 22.7888 19.8962 24.7644C19.2248 23.7233 18.7081 22.6259 18.3561 21.4934C16.289 14.7984 19.152 6.45975 22.1907 0.111115C26.542 1.28738 31.2137 4.30862 34.4281 7.81326C36.3706 9.8088 37.6937 12.128 38.2936 14.5889C39.8853 22.8308 36.7019 28.8008 31.5341 32.9016L31.3067 33.0869C31.3067 33.0869 20.5576 34.513 12.1547 31.4514C2.42888 27.8904 0 21.9527 0 21.9527C1.62126 21.637 3.29097 21.4987 4.96112 21.5418V21.5418Z" fill="url(#paint1_linear_111_821)"/>
<path d="M34.4282 7.81335L34.2525 7.62C29.1677 13.0652 26.4874 19.6497 26.6144 26.3839C26.611 28.7388 26.9192 31.0877 27.5343 33.3932C28.7973 33.351 30.0565 33.2569 31.3068 33.1112C31.3895 33.0548 31.4619 32.9823 31.5445 32.9179C36.7124 28.8009 39.8854 22.8309 38.2937 14.589C37.6938 12.1281 36.3707 9.80889 34.4282 7.81335V7.81335Z" fill="url(#paint2_linear_111_821)"/>
<defs>
<linearGradient id="paint0_linear_111_821" x1="46.4694" y1="3.90542" x2="28.8939" y2="12.9147" gradientUnits="userSpaceOnUse">
<stop stop-color="#B378FF"/>
<stop offset="1" stop-color="#F778B9"/>
</linearGradient>
<linearGradient id="paint1_linear_111_821" x1="34.835" y1="3.10879" x2="13.0495" y2="32.1755" gradientUnits="userSpaceOnUse">
<stop stop-color="#B378FF"/>
<stop offset="1" stop-color="#F778B9"/>
</linearGradient>
<linearGradient id="paint2_linear_111_821" x1="37.4968" y1="9.93958" x2="22.8279" y2="17.8443" gradientUnits="userSpaceOnUse">
<stop stop-color="#B378FF"/>
<stop offset="1" stop-color="#F778B9"/>
</linearGradient>
</defs>
</svg>
