<svg width="19" height="20" viewBox="0 0 19 20" fill="none" xmlns="http://www.w3.org/2000/svg">
<path d="M8.26484 16.5104C9.94944 16.5104 11.4981 15.8884 12.7337 14.8569L16.7454 19.1632L18.0357 17.778L14.0241 13.4717C14.9859 12.1444 15.5654 10.482 15.5654 8.67363C15.5654 4.35261 12.2902 0.836823 8.26484 0.836823C4.23948 0.836823 0.964264 4.35261 0.964264 8.67363C0.964264 12.9947 4.23948 16.5104 8.26484 16.5104ZM8.26484 2.79602C11.2845 2.79602 13.7403 5.43213 13.7403 8.67363C13.7403 11.9151 11.2845 14.5512 8.26484 14.5512C5.24514 14.5512 2.78941 11.9151 2.78941 8.67363C2.78941 5.43213 5.24514 2.79602 8.26484 2.79602Z" fill="white"/>
</svg>
