<svg width="375" height="221" viewBox="0 0 375 221" fill="none" xmlns="http://www.w3.org/2000/svg">
<path d="M318.233 170.668C316.665 169.843 315.005 169.106 313.217 168.629C309.583 167.659 305.503 167.761 301.715 168.915C299.036 169.731 296.534 171.062 294.116 172.348C292.914 172.987 291.673 173.644 290.416 174.241C287.069 175.826 282.195 177.46 277.97 176.258C277.91 176.335 277.853 176.411 277.788 176.494C275.703 179.241 274.061 182.266 272.475 185.195C270.241 189.319 267.929 193.585 264.321 197.171C263.893 197.597 263.448 198.011 262.991 198.411C266.45 200.005 270.611 199.857 273.577 199.427C276.867 198.955 280.13 197.955 283.284 196.993C283.935 196.795 284.587 196.596 285.239 196.404C287.825 195.633 290.837 194.803 293.832 194.719C294.377 194.704 294.908 194.719 295.429 194.744C296.667 191.771 297.964 188.821 300.154 186.118C305.274 179.787 312.733 175.891 318.233 170.668Z" fill="#DAE1F0"/>
<path d="M333.058 122.123C331.316 123.53 329.411 124.841 327.568 126.107C324.236 128.399 320.793 130.769 318.338 133.714C315.759 136.807 314.301 140.492 312.958 144.117C315.872 143.939 318.895 142.406 322.185 139.436C322.732 138.943 323.281 138.424 323.811 137.924C325.921 135.932 328.102 133.872 330.934 132.587C333.36 131.485 336.015 131.066 338.614 130.961C339.308 129.826 340.007 128.676 340.711 127.512C342.902 123.87 344.939 120.05 345.283 116.385C345.517 113.885 344.773 111.473 343.085 109.972C340.788 114.481 337.348 118.658 333.058 122.123Z" fill="#DAE1F0"/>
<path d="M304.483 141.056C304.736 141.461 304.988 141.865 305.235 142.27C307.66 146.275 308.585 149.847 308.008 152.925C309.488 150.421 310.511 147.644 311.565 144.782C313.027 140.811 314.539 136.707 317.427 133.236C319.983 130.173 323.498 127.75 326.895 125.412C328.718 124.158 330.604 122.862 332.309 121.485C336.572 118.041 339.975 113.873 342.201 109.38C339.862 108.364 336.559 108.509 333.483 109.528C329.251 110.929 325.363 113.674 321.736 116.479C314.733 121.898 308.454 127.092 301.526 131.569C301.361 132.743 301.398 133.936 301.637 135.096C302.088 137.224 303.306 139.172 304.483 141.056Z" fill="#DAE1F0"/>
<path d="M331.247 133.125C328.551 134.351 326.417 136.363 324.356 138.309C323.823 138.813 323.272 139.334 322.715 139.833C319.192 143.014 315.915 144.621 312.724 144.748L312.639 144.975C310.73 150.158 308.755 155.526 303.684 159.242C301.37 160.937 298.622 162.104 295.965 163.234C294.871 163.698 293.737 164.177 292.662 164.688C286.959 167.379 282.051 171.176 278.404 175.702C282.338 176.756 286.919 175.207 290.088 173.707C291.326 173.118 292.558 172.466 293.75 171.832C296.212 170.525 298.748 169.174 301.511 168.333C305.462 167.129 309.718 167.023 313.505 168.034C315.38 168.536 317.115 169.304 318.744 170.17C321.695 167.253 324.014 163.9 324.987 159.488C327.194 149.495 332.49 140.968 338.22 131.602C335.843 131.727 333.432 132.136 331.247 133.125Z" fill="#DAE1F0"/>
<path d="M297.767 69.0169C304.043 62.8012 313.442 62.5892 317.442 68.5727C317.465 68.6046 317.486 68.6364 317.507 68.6693C320.285 72.8834 321.181 78.8894 318.304 84.2061C316.827 86.937 314.417 89.4357 313.86 92.315C312.922 97.1959 317.569 100.021 319.729 103.872C321.82 107.6 321.466 112.886 318.832 117.279C316.37 121.385 312.002 124.986 311.487 129.382C311.149 132.273 312.633 134.661 314.052 136.857C316.306 140.35 318.545 143.949 319.437 148.199C320.329 152.45 319.696 157.518 316.702 161.594C314.23 164.957 310.316 167.485 308.746 171.209C307.205 174.861 308.416 178.503 308.061 182.218C307.388 189.233 300.649 196.089 293.537 198.059C290.567 198.892 287.439 198.978 284.429 198.309C283.77 198.167 283.087 198.183 282.436 198.354C279.306 199.131 276.179 199.249 273.344 198.516C266.91 196.851 262.682 190.243 264.633 183.201C265.667 179.47 268.251 175.747 268.068 172.127C267.882 168.443 264.882 166.07 263.649 162.791C262.156 158.818 263.415 153.735 265.91 149.408C268.405 145.081 272.006 141.349 275.591 137.725C277.845 135.445 280.237 132.969 280.984 130.067C282.112 125.658 279.057 122.223 278.113 118.196C277.102 113.885 278.727 108.57 282.232 104.716C285.854 100.734 291.605 97.6742 292.482 92.7945C293 89.9152 291.506 87.5048 291.04 84.8188C290.131 79.588 293.285 73.4901 297.666 69.1135L297.767 69.0169Z" fill="#6C8AC5"/>
<path d="M290.747 113.118C288.587 113.191 286.388 113.423 284.204 114.004C279.771 115.182 275.492 117.774 272.153 121.308C269.794 123.804 267.932 126.74 266.124 129.579C265.229 130.993 264.303 132.446 263.321 133.843C260.708 137.563 256.504 142.265 251.299 143.56C251.281 143.678 251.26 143.795 251.244 143.913C250.657 148.101 250.723 152.315 250.775 156.391C250.857 162.134 250.941 168.071 249.25 174.077C249.049 174.791 248.824 175.5 248.575 176.205C253.201 175.793 257.538 173.1 260.428 170.841C263.639 168.332 266.512 165.29 269.291 162.348C269.865 161.742 270.44 161.136 271.016 160.53C273.305 158.136 276.01 155.423 279.144 153.51C279.712 153.157 280.283 152.85 280.854 152.568C280.398 148.656 280.019 144.732 280.737 140.529C282.411 130.691 288.01 122.015 290.747 113.118Z" fill="#DAE1F0"/>
<path d="M277.585 52.5197C276.574 55.0738 275.33 57.6255 274.127 60.0937C271.952 64.5551 269.704 69.1651 268.851 73.795C267.957 78.6476 268.599 83.4554 269.331 88.1207C272.32 86.1603 274.619 82.692 276.346 77.5331C276.633 76.6754 276.908 75.7919 277.167 74.9413C278.222 71.5413 279.312 68.0258 281.556 64.9368C283.478 62.2908 286.05 60.2244 288.748 58.5362C288.809 56.9057 288.867 55.2587 288.921 53.5953C289.081 48.3916 288.969 43.0925 287.147 38.9927C285.903 36.1959 283.679 34.0847 280.992 33.5181C281.246 39.6949 280.08 46.2286 277.585 52.5197Z" fill="#DAE1F0"/>
<path d="M244.29 109.252C245.215 110.028 246.243 110.727 247.239 111.404C248.467 112.24 249.738 113.106 250.847 114.131C254.171 117.206 255.99 121.744 255.926 126.706C256.874 125.009 257.908 123.362 259.026 121.772C259.886 120.55 260.811 119.342 261.708 118.164C263.802 115.421 265.967 112.585 267.335 109.543C268.168 107.699 268.741 105.746 269.038 103.742C268.803 99.1125 265.6 95.0339 259.486 91.608C258.987 91.3276 258.482 91.0543 257.974 90.7833C255.554 89.4721 253.05 88.1173 251.236 86.0533C250.385 85.0776 249.685 83.9786 249.16 82.7935C246.617 87.5483 243.741 92.2029 240.265 96.8011C239.445 97.8833 238.684 99.0092 237.985 100.174C239.445 103.661 241.427 106.854 244.29 109.252Z" fill="#DAE1F0"/>
<path d="M249.508 156.687C249.45 152.564 249.391 148.305 249.977 144.023C250.736 138.552 252.557 133.066 255.3 127.858L255.034 127.898C255.376 122.738 253.613 117.966 250.195 114.804C249.119 113.808 247.867 112.956 246.656 112.133C245.649 111.447 244.608 110.739 243.659 109.944C240.857 107.597 238.881 104.525 237.415 101.167C230.069 114.419 235.168 126.192 231.237 140.212C228.848 148.73 222.494 156.039 219.618 164.488C217.102 171.88 217.534 179.399 219.239 185.763C220.012 188.652 221.053 191.408 222.709 193.503C225.149 196.587 228.72 198.014 232.51 198.79C238.748 191.604 245.449 183.122 248.023 174.005C249.674 168.18 249.588 162.334 249.508 156.687Z" fill="#DAE1F0"/>
<path d="M271.57 161.033C270.996 161.635 270.423 162.239 269.851 162.846C267.038 165.819 264.138 168.892 260.859 171.456C257.811 173.839 253.204 176.685 248.266 177.057C245.217 185.141 239.356 192.587 233.795 199.022C234.453 199.133 235.115 199.228 235.775 199.312C238.049 199.613 240.343 199.719 242.635 199.63C244.964 199.745 247.299 199.669 249.616 199.403C254.817 198.841 260.352 197.683 265.257 193.774C267.851 191.707 270.129 188.973 272.201 186.102C276.764 179.779 280.578 172.288 281.397 164.884C281.839 160.885 281.391 157.128 280.949 153.378C280.454 153.63 279.959 153.899 279.466 154.203C276.451 156.04 273.809 158.69 271.57 161.033Z" fill="#DAE1F0"/>
<path d="M258.503 90.0248C259.012 90.3004 259.52 90.5749 260.027 90.8565C264.992 93.6403 268.1 96.8648 269.319 100.49C269.401 96.9296 268.835 93.3564 268.25 89.6725C267.439 84.5654 266.599 79.284 267.603 73.8388C268.487 69.0239 270.776 64.3162 273.004 59.7652C274.194 57.323 275.425 54.7984 276.415 52.2972C278.895 46.0451 280.028 39.5455 279.716 33.417C276.626 33.761 273.204 35.9252 270.542 38.8798C266.879 42.9443 264.385 48.2269 262.202 53.4164C257.989 63.4303 254.411 72.775 249.719 81.7486C250.241 83.0944 250.992 84.3392 251.936 85.4278C253.675 87.4153 256.129 88.7394 258.503 90.0248Z" fill="#DAE1F0"/>
<path d="M282.215 65.314C280.077 68.2593 279.011 71.6922 277.982 75.0133C277.714 75.8733 277.439 76.7628 277.148 77.6311C275.299 83.1552 272.78 86.8532 269.459 88.9326C269.475 89.0292 269.49 89.127 269.506 89.2247C270.561 95.8975 271.661 102.799 268.487 109.832C267.039 113.041 264.815 115.958 262.664 118.772C261.778 119.931 260.863 121.128 260.021 122.326C255.566 128.656 252.61 135.676 251.431 142.707C256.238 141.433 260.184 137 262.658 133.478C263.624 132.102 264.543 130.65 265.432 129.257C267.264 126.373 269.16 123.391 271.593 120.814C275.074 117.133 279.536 114.428 284.158 113.199C286.454 112.588 288.751 112.351 290.996 112.28C292.394 107.385 292.86 102.412 291.268 97.1322C287.658 85.1697 288.204 72.8904 288.714 59.4482C286.262 61.0257 283.947 62.9295 282.215 65.314Z" fill="#DAE1F0"/>
<path d="M67.3914 203.842L243.053 203.382C251.557 203.36 257.558 196.147 256.459 187.269L239.541 50.8588C238.568 43.577 235.889 40.3007 227.386 40.3219L40.979 40.7825C34.8534 40.7825 31.2062 44.4876 31.9612 50.8588L47.814 187.808C48.9136 196.685 58.887 203.865 67.3914 203.842Z" fill="#324B7F"/>
<path d="M42.8312 44.71L224.604 44.2965C232.704 44.2765 234.761 47.0591 235.846 55.148L251.371 185.422C252.456 193.511 247.268 192.829 239.168 192.844L70.0818 193.263C61.9807 193.284 54.4741 194.006 53.3884 185.918L37.4559 56.6006C36.5778 51.351 36.8404 44.71 42.8312 44.71Z" fill="white"/>
<path d="M34.0315 193.347H250.099C252.73 193.347 254.861 194.76 254.861 196.495V203.071C254.861 204.81 252.73 206.219 250.099 206.219H34.0995C31.4687 206.219 30.5051 204.805 30.5051 203.071V196.495C30.5051 194.757 31.4007 193.347 34.0315 193.347Z" fill="#324B7F"/>
<path d="M130.529 193.347H355.624C358.379 193.347 359.413 194.76 359.413 196.495V203.071C359.413 204.81 358.379 206.219 355.624 206.219H130.529C127.773 206.219 125.54 204.805 125.54 203.071V196.495C125.54 194.757 127.773 193.347 130.529 193.347Z" fill="#1C2A47"/>
<path d="M26.2975 180.237C30.9049 187.769 27.1181 197.375 27.5542 206.179H67.5778C67.6317 205.979 67.695 205.778 67.743 205.577C70.3586 195.563 71.3164 184.331 65.9587 175.441C63.2716 170.98 59.0851 167.275 57.7005 162.271C54.9584 152.36 64.2201 141.374 59.7241 132.103C58.302 129.169 55.6876 126.973 53.8892 124.247C49.4869 117.572 50.5409 108.942 50.7648 100.99C50.8316 98.6257 50.6769 95.9526 48.8726 94.3928C44.9921 91.0269 38.9379 95.2728 36.6483 98.489C32.6728 104.076 29.9986 112.421 30.9611 119.212C31.613 123.812 33.9249 128.303 33.1511 132.885C32.13 138.934 26.2705 142.781 22.0476 147.29C16.2291 153.511 13.2338 163.345 17.813 170.498C20.1355 174.123 24.0512 176.564 26.2975 180.237Z" fill="#91A7D3"/>
<path d="M53.8094 195.65C51.215 198.595 48.5548 201.464 45.8959 204.201C46.3472 200.549 46.6024 196.875 46.6603 193.194L46.7119 193.134C49.1739 190.256 51.603 187.302 54.1388 184.097L53.691 183.594C51.2982 186.617 49.0015 189.417 46.6814 192.14C46.7166 188.438 46.5864 184.74 46.352 181.055C48.4622 178.337 50.6897 175.382 53.1775 172.018L52.7156 171.535C50.3802 174.691 48.2723 177.486 46.2828 180.062C46.0272 176.337 45.6732 172.625 45.2792 168.934C46.9206 166.694 48.5529 164.453 50.1762 162.212L51.8176 159.948L51.3486 159.468L49.7073 161.733C48.1996 163.809 46.6876 165.884 45.1714 167.96C44.9478 165.9 44.7181 163.848 44.482 161.802C44.2937 160.152 44.1069 158.495 43.9216 156.83C46.5442 153.237 48.59 150.468 50.542 147.883L50.0836 147.393C48.2195 149.867 46.2687 152.502 43.815 155.858C43.4128 152.171 43.0424 148.46 42.7598 144.736C45.2218 141.534 47.5243 138.618 49.8104 135.826L49.3696 135.313C47.1984 137.965 45.0072 140.732 42.6871 143.741C42.4304 140.054 42.2744 136.355 42.2768 132.652C44.9064 129.533 47.4692 126.626 50.1059 123.772L49.692 123.231C47.1949 125.932 44.7681 128.684 42.2815 131.615C42.3424 124.907 42.9462 118.192 44.4644 111.528L43.8712 111.336C42.3307 118.094 41.7223 124.885 41.6648 131.675C39.2884 128.825 37.1571 126.157 35.1699 123.539L34.7126 124.03C36.8229 126.816 39.1008 129.656 41.6601 132.711C41.6601 136.375 41.8125 140.034 42.0634 143.681C39.4396 140.803 37.0797 138.144 34.8733 135.591L34.443 136.115C36.7877 138.837 39.3119 141.665 42.1396 144.76C42.4104 148.423 42.7727 152.065 43.1666 155.698C40.1677 152.539 37.8065 150.028 35.6001 147.65L35.1863 148.193C37.524 150.712 40.0294 153.377 43.2886 156.804C43.4761 158.508 43.6672 160.206 43.8618 161.901C44.0838 163.839 44.3023 165.784 44.5172 167.734C42.4851 165.595 40.4471 163.455 38.4033 161.315L36.8792 159.716L36.4724 160.266L37.9965 161.865C40.213 164.188 42.4261 166.513 44.6356 168.838C45.0237 172.466 45.3742 176.113 45.631 179.772C44.568 178.604 43.4527 177.389 42.285 176.13C42.1992 176.358 42.101 176.582 41.9907 176.8C43.2979 178.214 44.5301 179.558 45.706 180.854C45.9404 184.506 46.0753 188.165 46.0495 191.828C44.9357 190.49 43.7798 189.125 42.5687 187.72C42.4702 187.939 42.36 188.153 42.2404 188.363C43.5664 189.902 44.8267 191.393 46.0366 192.855C45.9886 196.549 45.7421 200.237 45.298 203.903C44.5047 202.791 43.6762 201.66 42.8126 200.51C42.6789 200.693 42.5359 200.864 42.3858 201.041C43.3565 202.336 44.2847 203.608 45.1702 204.856C45.1104 205.297 45.0588 205.739 44.9932 206.179H45.6216C45.6638 205.894 45.6954 205.609 45.7388 205.324L45.842 205.219C48.6557 202.335 51.4775 199.295 54.2256 196.179L53.8094 195.65Z" fill="#1C2A47"/>
<path d="M58.7533 190.396C58.6525 193.672 58.1917 197.364 60.0335 199.837C62.186 202.726 66.2717 202.302 69.0525 204.379C69.7086 204.869 70.2656 205.48 70.6939 206.179H74.7971C74.4173 203.1 73.1629 199.993 71.7302 198.678C70.3679 197.43 68.5824 196.824 67.3596 195.4C65.1696 192.849 65.4968 188.714 64.5999 185.276C63.1755 179.822 58.6302 176.264 54.0404 174.076C57.4871 178.403 58.9362 184.491 58.7533 190.396Z" fill="#486DB7"/>
<path d="M70.6529 200.912C71.633 202.09 72.5357 203.975 73.3399 206.179H78.5945C78.7317 204.545 78.8466 203.134 78.9192 202.147C79.3882 195.81 79.7 188.869 76.0176 183.735C73.9566 180.862 70.8182 178.861 69.0502 175.793C67.6833 173.416 67.2612 170.598 67.1744 167.847C67.0821 165.395 67.2996 162.941 67.8216 160.543C68.2003 158.864 68.8837 156.527 69.3843 154.5C65.9774 158.53 63.2306 163.726 61.5295 168.737C59.4462 174.852 59.0147 181.74 61.4122 187.733C63.4275 192.757 67.2178 196.772 70.6529 200.912Z" fill="#DAE1F0"/>
<path d="M72.1886 206.179H78.2111C79.02 200.563 81.611 195.208 84.3074 190.157C86.6522 185.757 89.1727 181.076 88.7917 176.088C88.29 169.529 83.0049 164.543 78.0892 160.268C80.6789 164.779 79.8477 170.542 77.9438 175.394C76.0399 180.247 73.1676 184.701 71.7033 189.704C70.2964 194.534 70.3445 199.766 71.695 204.604C71.8392 205.13 72.0093 205.655 72.1886 206.179Z" fill="#6C8AC5"/>
<path d="M79.6109 206.18C79.8422 206.008 80.0838 205.85 80.3343 205.708C83.7341 203.775 88.4342 204.516 91.1646 201.703C93.5012 199.291 93.2667 195.459 93.4144 192.069C93.6805 185.975 95.8553 179.807 100.204 175.605C94.7028 177.518 89.1423 180.846 87.0484 186.36C85.7283 189.836 85.7741 194.122 83.0272 196.586C81.4926 197.963 79.3729 198.454 77.6917 199.64C76.102 200.761 74.5627 203.385 73.7643 206.188L79.6109 206.18Z" fill="#DAE1F0"/>
<path fill-rule="evenodd" clip-rule="evenodd" d="M171.135 41.1925C177.652 40.8992 182.323 51.4244 182.323 51.4244C182.758 52.2248 183.225 53.0565 183.698 53.9005C184.129 54.6677 184.566 55.445 184.988 56.218C186.471 58.9331 188.007 61.6743 189.569 64.4627C198.231 79.9218 207.707 96.8347 213.422 118.808C216.727 131.508 205.702 129.024 181.531 123.576C180.301 123.299 179.036 123.014 177.738 122.723L181.037 103.331C182.235 103.588 188.254 105.311 191.675 106.298C191.912 106.37 192.164 106.376 192.405 106.316C192.645 106.256 192.865 106.132 193.041 105.957C193.217 105.782 193.343 105.563 193.405 105.323C193.468 105.082 193.465 104.829 193.396 104.59L192.644 101.88C188.864 88.2624 183.116 73.5137 177.558 59.2587C177.292 58.5777 177.048 57.9046 176.806 57.2337L171.135 56.1957V41.1925Z" fill="#B5C4E2"/>
<path fill-rule="evenodd" clip-rule="evenodd" d="M181.99 51.5899L181.997 51.603C182.433 52.4062 182.901 53.2404 183.375 54.0839C183.806 54.8513 184.241 55.6267 184.662 56.3976C186.146 59.1145 187.683 61.8573 189.245 64.6453L189.245 64.6458C197.907 80.1062 207.361 96.9811 213.062 118.903C213.883 122.055 213.777 124.145 212.92 125.474C212.073 126.788 210.406 127.484 207.76 127.625C205.124 127.765 201.619 127.348 197.242 126.548C192.87 125.749 187.658 124.574 181.612 123.212C180.491 122.959 179.342 122.7 178.164 122.436L181.337 103.786C183.095 104.223 188.416 105.746 191.571 106.656C191.871 106.747 192.19 106.754 192.494 106.678L192.405 106.316C192.164 106.376 191.912 106.37 191.675 106.298C188.52 105.387 183.154 103.851 181.4 103.417C181.252 103.38 181.13 103.351 181.037 103.331L177.738 122.723C179.036 123.014 180.301 123.299 181.531 123.576C205.702 129.024 216.727 131.508 213.422 118.808C207.707 96.8347 198.231 79.9218 189.569 64.4627C188.007 61.6743 186.471 58.9331 184.988 56.218C184.566 55.445 184.129 54.6677 183.698 53.9005C183.225 53.0565 182.758 52.2248 182.323 51.4244C182.323 51.4244 177.652 40.8992 171.135 41.1925V56.1957L176.806 57.2337C177.048 57.9046 177.292 58.5777 177.558 59.2587L177.904 59.1226C177.64 58.4465 177.397 57.7774 177.156 57.1068L177.083 56.9049L171.507 55.8842V41.5608C172.899 41.5868 174.212 42.1306 175.42 42.974C176.732 43.8897 177.9 45.1457 178.878 46.4257C179.855 47.7039 180.632 48.9935 181.166 49.9648C181.433 50.45 181.638 50.8547 181.776 51.1373C181.845 51.2786 181.898 51.3893 181.933 51.4642C181.95 51.5017 181.963 51.5302 181.972 51.5491C181.976 51.5585 181.979 51.5656 181.981 51.5702L181.983 51.5752L181.984 51.5762L181.984 51.5764L181.99 51.5899ZM193.002 101.78C189.216 88.1404 183.46 73.3733 177.904 59.1226L177.558 59.2587C183.116 73.5137 188.864 88.2624 192.644 101.88L193.396 104.59C193.465 104.829 193.468 105.082 193.405 105.323C193.343 105.563 193.217 105.782 193.041 105.957C192.865 106.132 192.645 106.256 192.405 106.316L192.494 106.678C192.799 106.602 193.078 106.445 193.302 106.223C193.525 106.001 193.685 105.722 193.765 105.417C193.844 105.112 193.841 104.791 193.754 104.488C193.754 104.488 193.754 104.487 193.754 104.487L193.002 101.78C193.002 101.78 193.002 101.78 193.002 101.78Z" fill="#1C2A47"/>
<path d="M170.337 61.7418C166.836 61.7418 163.997 57.6741 163.997 52.6563C163.997 47.6385 166.836 43.5708 170.337 43.5708C173.839 43.5708 176.677 47.6385 176.677 52.6563C176.677 57.6741 173.839 61.7418 170.337 61.7418Z" fill="#ECF0F7"/>
<path d="M92.3546 31.7722C91.847 34.2179 91.82 36.838 90.6523 39.0246C89.6476 40.8895 87.9066 42.2255 86.76 44.0009C85.6135 45.7763 85.2477 48.4718 86.8773 49.9079C87.6499 50.59 88.7155 50.8398 89.487 51.5184C91.6582 53.4339 90.2045 56.8587 89.8903 59.6979C89.5386 62.8788 91.0509 66.2576 93.6747 68.1508C95.561 69.5127 98.1473 70.3974 98.8096 72.6276C99.3278 74.3865 98.3888 76.4375 99.3665 77.9973C100.804 80.2852 104.46 79.0129 106.723 80.4631C108.316 81.4857 108.798 83.5568 109.69 85.2344C111.354 88.3646 114.925 90.378 118.366 90.1283C120.207 89.994 122.046 89.2765 123.853 89.7477C126.186 90.358 127.874 92.8202 130.26 93.0582C135.215 93.5448 135.429 87.626 138.191 84.0693C141.666 79.5925 149.638 78.8856 150.618 73.2225C150.852 71.8948 150.644 70.3715 151.476 69.3348C152.308 68.298 153.924 68.1649 154.876 67.2142C156.665 65.4294 155.26 62.0694 155.794 59.6743C155.904 59.4635 156.448 58.2371 156.59 58.1028C163.007 44.4851 162.005 29.5739 152.838 21.3849C145.25 14.6002 133.878 14.0642 123.091 18.7931C122.973 18.7153 122.902 18.6199 122.783 18.5457C119.97 16.7667 116.845 16.6819 113.698 17.3676C107.922 18.614 106.946 24.2701 102.288 26.0101C100.506 26.6734 98.4404 25.7604 96.5845 26.1892C94.1847 26.7429 92.8622 29.3276 92.3546 31.7722Z" fill="#273B63"/>
<path d="M148.165 55.8184C144.953 54.5779 139.084 54.1479 136.57 53.0381C134.875 52.2888 133.139 51.4724 131.71 50.3214C130.984 49.7323 129.981 48.7274 129.144 46.8248C129.155 46.8472 129.685 44.4509 129.216 46.2357C130.328 42.0252 129.842 38.359 128.355 35.3595C128.282 33.4298 128.487 31.1855 129.968 28.2296C133.26 21.6535 136.085 21.5145 138.858 19.3739C141.581 17.2757 141.532 17.6491 145.306 15.9032C148.607 14.3716 152.543 14.447 155.857 15.9244C155.857 15.9244 157.803 16.9423 158.527 17.5219C159.306 18.1463 160.027 18.8402 160.768 19.5117C161.778 19.7591 165.563 20.936 166.656 23.2404C168.8 27.7666 167.984 30.1912 167.984 30.1912C165.495 30.5152 162.38 27.9328 160.458 28.9577C159.619 29.5008 159.261 29.7623 158.826 30.2536C156.481 32.8926 154.542 35.052 154.605 38.8608C154.655 41.9851 156.715 45.212 155.247 48.05C153.939 50.5829 150.382 51.4877 148.871 53.9228C148.522 54.506 148.283 55.1485 148.165 55.8184V55.8184Z" fill="#273B63"/>
<path d="M157.508 124.761L181.741 130.534C185.141 131.344 187.899 129.097 187.757 125.629L186.93 105.513C186.798 102.332 185.484 101.508 182.357 100.777C170.923 98.091 146.682 90.0693 146.682 90.0693L144.544 106.785C143.559 114.511 149.592 122.876 157.508 124.761Z" fill="#B378FF"/>
<path d="M162.896 180.838C162.998 185.54 163.175 189.547 163.404 193.009H95.1553C100.586 185.352 105.858 178.138 106.305 164.986C106.774 151.302 103.256 145.39 101.967 133.105C101.967 133.112 97.418 107.901 114.402 96.8845L118.017 94.5448C128.473 88.0853 143.437 82.4104 157.796 95.8231C161.807 99.5718 164.622 104.46 165.94 109.904C166.526 112.307 166.995 114.717 167.423 116.774C167.435 116.809 167.444 116.844 167.448 116.88C167.609 117.652 167.726 118.432 167.8 119.217C167.849 119.763 167.881 120.311 167.9 120.866L167.834 120.918C168.077 135.355 162.295 153.066 162.896 180.838Z" fill="#B378FF"/>
<path d="M142.682 65.1021C139.365 62.5845 132.704 60.114 130.155 57.984C128.435 56.5491 126.692 55.0176 125.414 53.2009C124.766 52.2773 123.934 50.7729 123.589 48.2859C123.589 48.3153 124.996 45.7164 123.868 47.6214C126.541 43.1152 127.185 38.702 126.447 34.7259C126.998 32.4628 127.971 29.9311 130.668 27.0023C136.647 20.4851 139.967 21.2685 143.884 19.724C147.73 18.2066 147.551 18.6225 152.5 17.8661C155.754 17.369 159.64 18.0629 162.795 19.6333C164.408 20.4391 165.739 21.7303 166.697 23.2701C166.903 23.6035 167.112 23.9251 167.293 24.1796C167.4 24.332 167.506 24.4859 167.61 24.6414C168.68 26.2057 169.974 27.6023 171.451 28.786C172.908 29.9747 174.394 31.7088 174.834 33.5384C176.573 40.7472 174.088 45.4679 174.088 45.4679C171.097 45.0072 168.335 37.5451 165.764 38.0871C164.615 38.4405 164.113 38.6184 163.447 39.0402C159.863 41.3127 156.904 43.1635 155.722 47.5991C154.753 51.237 156.074 55.6679 153.447 58.4611C151.102 60.9575 146.678 60.8173 144.124 63.1264C143.526 63.6893 143.037 64.3593 142.682 65.1021Z" fill="#273B63"/>
<path d="M135.34 63.7611C136.262 66.5708 137.506 68.9082 139.036 70.6765C139.051 70.693 139.047 70.7614 139.062 70.746C143.391 66.2775 143.14 61.0408 143.14 61.0408C141.955 60.129 141.147 58.0225 141.196 55.5815C141.256 52.3417 142.795 49.7487 144.631 49.7912C144.77 49.7912 144.89 49.896 145.021 49.9408L132.828 38.5132C131.289 44.2117 131.573 52.2805 135.34 63.7611Z" fill="#273B63"/>
<path fill-rule="evenodd" clip-rule="evenodd" d="M146.022 90.9621L154.692 65.1205C155.263 63.4158 154.664 61.6545 153.359 61.2069L143.873 57.9553C142.568 57.5076 141.034 58.5373 140.462 60.242L129.731 92.2263C129.589 92.6444 129.519 93.0658 129.512 93.4705C128.506 95.0333 128.856 97.1945 130.55 98.7259C133.797 101.662 136.995 104.638 140.144 107.655C141.972 109.407 145.009 109.192 145.974 107.234C148.2 102.716 148.763 101.643 149.249 100.537C149.591 99.7591 149.895 98.9644 150.714 96.9422C151.746 94.394 149.153 92.289 146.022 90.9621Z" fill="#B5C4E2"/>
<path fill-rule="evenodd" clip-rule="evenodd" d="M145.56 91.1713L145.878 91.306C147.421 91.9602 148.795 92.7921 149.653 93.7446C150.5 94.6841 150.816 95.6991 150.37 96.8016C150.098 97.4716 149.884 98.0058 149.706 98.4485C149.346 99.3475 149.136 99.8695 148.909 100.386C148.587 101.118 148.233 101.832 147.37 103.573C146.939 104.44 146.383 105.563 145.641 107.069C145.23 107.902 144.366 108.391 143.356 108.463C142.347 108.535 141.235 108.185 140.4 107.385C137.249 104.365 134.048 101.387 130.799 98.4484C129.213 97.0155 128.935 95.0535 129.824 93.6733L129.882 93.5835L129.884 93.4765C129.89 93.111 129.954 92.728 130.083 92.3464L130.083 92.3455L140.814 60.3613C140.814 60.3612 140.814 60.3613 140.814 60.3613C141.076 59.5808 141.554 58.9672 142.099 58.602C142.643 58.2369 143.233 58.1303 143.753 58.3086L153.239 61.5601C153.239 61.5601 153.239 61.5601 153.239 61.5601C153.759 61.7386 154.164 62.1871 154.377 62.8131C154.59 63.439 154.601 64.221 154.34 65.0013C154.34 65.0014 154.34 65.0014 154.34 65.0015L145.56 91.1713ZM154.692 65.1205C155.263 63.4158 154.664 61.6545 153.359 61.2069L143.873 57.9553C142.568 57.5076 141.034 58.5373 140.462 60.242L129.731 92.2263C129.589 92.6443 129.519 93.0658 129.512 93.4705C128.506 95.0333 128.856 97.1945 130.55 98.7259C133.797 101.662 136.995 104.638 140.144 107.655C141.972 109.407 145.009 109.192 145.974 107.234C146.711 105.738 147.266 104.62 147.696 103.753C148.564 102.002 148.924 101.277 149.249 100.537C149.479 100.015 149.691 99.4846 150.054 98.5803C150.232 98.1381 150.445 97.6063 150.714 96.9422C151.746 94.394 149.153 92.289 146.022 90.9621L154.692 65.1205Z" fill="#1C2A47"/>
<path fill-rule="evenodd" clip-rule="evenodd" d="M175.418 44.3315C175.53 38.818 172.999 33.8853 169.056 30.6113L140.894 44.077L140.767 50.3204C138.211 50.4618 136.141 53.002 136.078 56.1573C136.012 59.4394 138.141 62.1467 140.837 62.2021C140.937 62.2041 141.036 62.2025 141.134 62.1974C142.987 69.6022 149.597 75.1926 157.521 75.3568C167.015 75.5535 174.939 67.8912 175.134 58.3285L175.418 44.3315Z" fill="#B5C4E2"/>
<path fill-rule="evenodd" clip-rule="evenodd" d="M140.767 50.3204L140.894 44.077L169.056 30.6113C172.999 33.8853 175.53 38.818 175.418 44.3315L175.134 58.3285C174.939 67.8912 167.015 75.5535 157.521 75.3568C149.597 75.1926 142.987 69.6022 141.134 62.1974C141.036 62.2025 140.937 62.2041 140.837 62.2021C138.141 62.1467 136.012 59.4394 136.078 56.1573C136.141 53.002 138.211 50.4618 140.767 50.3204ZM174.762 58.3209C174.762 58.3209 174.762 58.3209 174.762 58.3209C174.572 67.6784 166.817 75.176 157.529 74.9836C149.778 74.8229 143.308 69.3536 141.494 62.1064L141.42 61.8087L141.115 61.8246C141.025 61.8293 140.935 61.8307 140.845 61.8289C138.418 61.779 136.386 59.3117 136.449 56.1648C136.51 53.1432 138.482 50.8207 140.788 50.6931L141.132 50.6741L141.261 44.315L169.001 31.0514C172.759 34.2582 175.154 39.0181 175.046 44.3238L174.762 58.3209Z" fill="#1C2A47"/>
<path d="M135.872 37.2278C137.885 33.2046 138.533 28.0999 142.158 25.5163C144.401 23.9176 147.316 23.6985 150.042 23.8929C153.325 24.1285 156.548 24.879 159.756 25.6282L166.755 27.2623C167.024 27.3247 167.303 27.393 167.514 27.5745C167.748 27.7759 167.859 28.0846 167.961 28.3779C168.358 29.5195 169.928 32.2951 169.602 33.4709C169.237 34.7891 167.578 34.808 166.479 34.8634C155.17 35.43 148.472 41.9438 145.932 45.7149C143.837 48.8239 142.681 52.5231 140.513 55.5791C139.107 57.5605 137.302 59.2233 135.216 60.46C135.13 60.5118 135.034 60.5519 134.946 60.6013L129.142 46.1272C131.513 43.2538 134.205 40.563 135.872 37.2278Z" fill="#273B63"/>
<path d="M136.232 61.5226C132.73 61.5226 129.891 57.4549 129.891 52.4371C129.891 47.4193 132.73 43.3516 136.232 43.3516C139.733 43.3516 142.572 47.4193 142.572 52.4371C142.572 57.4549 139.733 61.5226 136.232 61.5226Z" fill="#ECF0F7"/>
<path d="M133.664 61.5226C130.163 61.5226 127.324 57.4549 127.324 52.4371C127.324 47.4193 130.163 43.3516 133.664 43.3516C137.166 43.3516 140.004 47.4193 140.004 52.4371C140.004 57.4549 137.166 61.5226 133.664 61.5226Z" fill="#1C2A47"/>
<path d="M134.043 45.7843C134.188 45.7842 134.327 45.7279 134.432 45.6272C134.537 45.5265 134.599 45.3891 134.606 45.2436C135.004 36.6529 137.725 30.0107 142.695 25.4986C150.28 18.6126 160.632 19.098 160.732 19.1039C160.806 19.108 160.88 19.0975 160.95 19.0729C161.02 19.0483 161.084 19.0102 161.139 18.9605C161.195 18.9109 161.24 18.8509 161.272 18.7838C161.304 18.7167 161.323 18.6439 161.327 18.5696C161.331 18.4952 161.321 18.4208 161.296 18.3505C161.272 18.2803 161.234 18.2155 161.184 18.16C161.135 18.1045 161.075 18.0593 161.008 18.027C160.942 17.9947 160.869 17.9759 160.795 17.9717C160.352 17.9493 149.892 17.4474 141.948 24.6492C136.743 29.371 133.894 36.2817 133.48 45.1917C133.474 45.3413 133.527 45.4871 133.628 45.5975C133.728 45.7079 133.868 45.7737 134.017 45.7808L134.043 45.7843Z" fill="#1C2A47"/>
<path d="M152.015 70.753C152.09 70.7542 152.162 70.7256 152.216 70.6735C152.269 70.6214 152.3 70.55 152.301 70.475C152.303 70.4 152.274 70.3276 152.222 70.2736C152.17 70.2197 152.099 70.1888 152.025 70.1875C136.683 69.6526 134.716 58.8942 134.697 58.7858C134.691 58.7492 134.678 58.7141 134.658 58.6825C134.639 58.651 134.613 58.6236 134.583 58.602C134.553 58.5804 134.519 58.565 134.483 58.5566C134.447 58.5482 134.409 58.5471 134.373 58.5532C134.336 58.5593 134.301 58.5725 134.27 58.5922C134.239 58.6119 134.211 58.6376 134.19 58.6679C134.168 58.6981 134.153 58.7323 134.145 58.7685C134.136 58.8047 134.135 58.8422 134.141 58.8789C134.16 58.9967 136.208 70.2028 152.005 70.753H152.015Z" fill="#1C2A47"/>
<path d="M151.159 69.7012H152.913C153.199 69.7012 153.43 69.9338 153.43 70.2207V70.7921C153.43 71.079 153.199 71.3116 152.913 71.3116H151.159C150.874 71.3116 150.642 71.079 150.642 70.7921V70.2207C150.642 69.9338 150.874 69.7012 151.159 69.7012Z" fill="#ECF0F7"/>
<path fill-rule="evenodd" clip-rule="evenodd" d="M183.386 144.337H183.466L191.516 142.399C193.176 142 194.916 142.892 195.475 144.52C195.795 145.471 196.001 146.44 195.795 147.067C195.001 149.486 192.878 152.565 190.912 153.694C187.817 155.469 181.091 154.877 176.851 153.194C176.735 153.254 176.618 153.314 176.502 153.374C175.812 153.727 175.114 154.085 174.419 154.43C172.708 155.28 170.997 156.14 169.278 157.005C154.518 164.429 139.124 172.173 116.931 175.981C104.186 178.175 105.231 167.031 108.172 140.1L127.618 145.497C127.501 146.675 126.509 152.455 125.918 155.904L125.88 156.125C125.702 157.183 126.746 158.263 127.755 158.07L130.342 157.577C143.322 155.1 157.194 150.72 170.608 146.479C171.373 146.237 172.404 145.92 173.418 145.609C174.175 145.377 174.921 145.148 175.538 144.955C175.714 144.792 175.871 144.645 176.015 144.511C177.357 143.257 177.467 143.155 179.426 141.896C180.921 140.932 182.58 140.254 184.32 139.894C185.112 139.733 185.443 140.623 184.889 141.147C184.225 141.776 183.586 142.6 182.935 144.053C182.856 144.232 183.183 144.311 183.386 144.337Z" fill="#B5C4E2"/>
<path fill-rule="evenodd" clip-rule="evenodd" d="M183.51 144.711L191.603 142.762C191.603 142.762 191.603 142.762 191.603 142.762C193.088 142.405 194.63 143.206 195.123 144.641C195.279 145.104 195.404 145.561 195.465 145.97C195.527 146.387 195.519 146.718 195.442 146.95L195.442 146.95C195.06 148.116 194.35 149.457 193.492 150.645C192.631 151.838 191.646 152.843 190.728 153.37C189.275 154.203 186.909 154.504 184.33 154.368C181.767 154.234 179.066 153.672 176.988 152.847L176.832 152.785L176.682 152.862C176.571 152.919 176.459 152.976 176.347 153.034L176.333 153.041C175.643 153.395 174.947 153.752 174.255 154.095C172.542 154.945 170.831 155.806 169.113 156.67L169.111 156.671C154.354 164.095 139.002 171.815 116.868 175.613L116.868 175.613C113.721 176.155 111.516 175.856 109.985 174.781C108.456 173.708 107.511 171.799 107.036 168.902C106.561 166.007 106.566 162.193 106.878 157.401C107.184 152.716 107.78 147.123 108.494 140.576L127.212 145.771C126.996 147.421 126.103 152.623 125.551 155.841L125.513 156.063C125.4 156.733 125.676 157.382 126.105 157.827C126.534 158.27 127.167 158.562 127.825 158.437L127.825 158.437L130.411 157.944C143.417 155.462 157.31 151.075 170.72 146.835C171.482 146.594 172.512 146.278 173.526 145.966L173.527 145.966C174.283 145.734 175.031 145.505 175.648 145.312L175.729 145.287L175.791 145.229C175.967 145.066 176.124 144.918 176.268 144.784C176.943 144.154 177.292 143.828 177.716 143.501C178.141 143.173 178.644 142.842 179.627 142.211L179.627 142.21C181.084 141.272 182.699 140.61 184.394 140.259C184.52 140.234 184.601 140.254 184.651 140.28C184.702 140.307 184.742 140.35 184.767 140.409C184.816 140.526 184.804 140.715 184.634 140.875L184.633 140.876C183.931 141.541 183.265 142.406 182.596 143.9L182.596 143.901C182.524 144.063 182.54 144.24 182.638 144.381C182.716 144.495 182.826 144.558 182.898 144.591C183.048 144.661 183.226 144.693 183.339 144.708L183.362 144.711H183.51ZM184.32 139.894C182.58 140.254 180.921 140.932 179.426 141.896C177.467 143.155 177.357 143.257 176.015 144.511C175.871 144.645 175.714 144.792 175.538 144.955C174.921 145.148 174.175 145.377 173.418 145.609L173.417 145.609C172.404 145.92 171.373 146.237 170.608 146.479C157.194 150.72 143.322 155.1 130.342 157.577L127.755 158.07C126.746 158.263 125.702 157.183 125.88 156.125L125.918 155.904C126.509 152.455 127.501 146.675 127.618 145.497L108.172 140.1C108.159 140.225 108.145 140.351 108.131 140.476C105.221 167.135 104.246 178.165 116.931 175.981C139.124 172.173 154.518 164.429 169.278 157.005L169.278 157.005C170.997 156.14 172.708 155.279 174.419 154.43C175.114 154.085 175.812 153.727 176.501 153.374L176.502 153.374L176.513 153.368C176.626 153.31 176.739 153.252 176.851 153.194C181.091 154.877 187.817 155.469 190.912 153.694C192.878 152.565 195.001 149.486 195.795 147.067C196.001 146.44 195.795 145.471 195.475 144.52C194.916 142.892 193.176 142 191.516 142.399L183.466 144.337H183.386C183.183 144.311 182.856 144.232 182.935 144.053C183.586 142.6 184.225 141.776 184.889 141.147C185.443 140.623 185.112 139.733 184.32 139.894Z" fill="#1C2A47"/>
<path d="M102.61 118.734L99.6186 143.048C99.5172 143.854 99.5811 144.672 99.8061 145.453C100.031 146.233 100.413 146.959 100.927 147.586C101.442 148.212 102.079 148.727 102.798 149.097C103.518 149.468 104.305 149.686 105.112 149.739L124.816 150.969C127.934 151.164 128.595 149.897 128.97 146.762C130.345 135.286 135.553 111.198 135.553 111.198L118.868 107.271C111.155 105.456 103.587 110.792 102.61 118.734Z" fill="#B378FF"/>
<path d="M126.558 151.652C127.183 151.46 127.743 151.1 128.18 150.612C128.616 150.124 128.913 149.526 129.037 148.881L135.345 115.659C135.365 115.577 135.367 115.492 135.353 115.408C135.339 115.325 135.308 115.246 135.262 115.175C135.217 115.104 135.157 115.043 135.088 114.996C135.018 114.949 134.939 114.916 134.857 114.9C134.774 114.884 134.69 114.885 134.608 114.903C134.525 114.921 134.448 114.956 134.379 115.005C134.311 115.053 134.253 115.116 134.209 115.188C134.165 115.26 134.136 115.34 134.124 115.423L127.815 148.646C127.706 149.222 127.386 149.737 126.917 150.088C126.449 150.439 125.866 150.6 125.285 150.54L119.176 149.889C119.012 149.875 118.85 149.926 118.724 150.031C118.597 150.137 118.517 150.287 118.5 150.451C118.483 150.615 118.531 150.78 118.633 150.909C118.735 151.038 118.883 151.122 119.046 151.142L125.156 151.794C125.628 151.843 126.105 151.795 126.558 151.652Z" fill="url(#paint0_linear_102_693)"/>
<path d="M58.6759 77.6026C65.3971 77.6026 70.8686 72.0573 70.8686 65.242C70.8686 58.4267 65.4007 52.8813 58.6759 52.8813C51.9512 52.8813 46.4833 58.4255 46.4833 65.242C46.4833 72.0585 51.9548 77.6026 58.6759 77.6026ZM58.6759 53.0981C65.2764 53.0981 70.6458 58.5421 70.6458 65.2326C70.6458 71.923 65.2764 77.367 58.6759 77.367C52.0755 77.367 46.706 71.9218 46.706 65.2326C46.706 58.5433 52.0755 53.104 58.6759 53.104V53.0981Z" fill="#6C8AC5"/>
<path d="M62.9691 63.4007C65.3479 64.7544 66.4956 67.4911 65.9997 70.0735C65.9573 70.2866 65.8652 70.4866 65.731 70.6571C65.5968 70.8276 65.4243 70.9636 65.2276 71.0541C65.0309 71.1446 64.8157 71.1869 64.5996 71.1776C64.3835 71.1683 64.1727 71.1077 63.9844 71.0007L61.2153 69.4244C61.0042 69.3038 60.8488 69.1045 60.783 68.8696C60.7171 68.6347 60.7461 68.3832 60.8636 68.1697L61.8015 66.4756C61.9098 66.2799 61.937 66.0491 61.877 65.8334C61.8171 65.6177 61.675 65.4344 61.4814 65.3234L56.6407 62.569C56.5451 62.5145 56.4397 62.4796 56.3306 62.4664C56.2215 62.4532 56.1109 62.4619 56.0052 62.4921C55.8995 62.5222 55.8008 62.5732 55.7149 62.642C55.629 62.7108 55.5575 62.7961 55.5047 62.893L54.5668 64.5859C54.5093 64.6913 54.4315 64.7843 54.338 64.8593C54.2445 64.9342 54.1371 64.9898 54.022 65.0227C53.9069 65.0556 53.7864 65.0651 53.6676 65.0508C53.5488 65.0365 53.434 64.9986 53.3299 64.9393L50.5608 63.3642C50.3721 63.2564 50.211 63.1057 50.0906 62.9242C49.9702 62.7427 49.8938 62.5353 49.8675 62.3188C49.8412 62.1023 49.8657 61.8825 49.9391 61.6772C50.0124 61.4719 50.1326 61.2867 50.29 61.1364C51.2454 60.2475 52.4568 59.6861 53.7498 59.5328C55.0429 59.3795 56.351 59.6424 57.486 60.2835L62.9691 63.4007Z" fill="#6C8AC5"/>
<path d="M54.1107 85.5301C54.1507 85.5332 54.1908 85.5268 54.2279 85.5116C54.265 85.4964 54.2981 85.4727 54.3245 85.4424C54.3509 85.4121 54.3699 85.376 54.38 85.3371C54.3901 85.2981 54.391 85.2573 54.3827 85.2179C54.3611 85.1298 54.3106 85.0515 54.2394 84.9957C54.1681 84.94 54.0803 84.9099 53.99 84.9104C53.95 84.9074 53.9099 84.9137 53.8728 84.9289C53.8357 84.9441 53.8026 84.9678 53.7762 84.9981C53.7498 85.0284 53.7308 85.0645 53.7207 85.1035C53.7106 85.1424 53.7096 85.1832 53.718 85.2226C53.7397 85.3106 53.7903 85.3888 53.8615 85.4445C53.9327 85.5003 54.0204 85.5304 54.1107 85.5301Z" fill="#6C8AC5"/>
<path d="M54.4238 87.1381C54.4638 87.141 54.5039 87.1345 54.541 87.1191C54.5781 87.1038 54.6111 87.0799 54.6375 87.0496C54.6638 87.0192 54.6828 86.9831 54.6929 86.944C54.7031 86.905 54.704 86.8642 54.6957 86.8247C54.6738 86.7368 54.6232 86.6588 54.552 86.6031C54.4808 86.5474 54.3932 86.5172 54.303 86.5173C54.263 86.5144 54.2229 86.5209 54.1858 86.5363C54.1487 86.5516 54.1157 86.5754 54.0893 86.6058C54.0629 86.6362 54.0439 86.6723 54.0338 86.7113C54.0237 86.7503 54.0227 86.7912 54.031 86.8306C54.053 86.9186 54.1036 86.9966 54.1747 87.0523C54.2459 87.108 54.3335 87.1382 54.4238 87.1381V87.1381Z" fill="#6C8AC5"/>
<path d="M54.7368 88.7474C54.7767 88.7502 54.8167 88.7437 54.8537 88.7284C54.8907 88.7131 54.9236 88.6894 54.95 88.6591C54.9763 88.6289 54.9953 88.593 55.0055 88.5541C55.0158 88.5152 55.0169 88.4745 55.0088 88.4352C54.987 88.3471 54.9365 88.269 54.8653 88.2133C54.7941 88.1575 54.7063 88.1274 54.616 88.1277C54.576 88.1247 54.5359 88.131 54.4988 88.1462C54.4616 88.1615 54.4285 88.1851 54.402 88.2154C54.3756 88.2457 54.3564 88.2817 54.3462 88.3206C54.3359 88.3596 54.3348 88.4004 54.3429 88.4399C54.3649 88.528 54.4157 88.6062 54.4871 88.6619C54.5585 88.7176 54.6464 88.7477 54.7368 88.7474V88.7474Z" fill="#6C8AC5"/>
<path d="M55.0486 90.3603C55.0887 90.3631 55.1288 90.3566 55.1659 90.3412C55.2031 90.3258 55.2362 90.302 55.2626 90.2717C55.2891 90.2413 55.3082 90.2053 55.3184 90.1663C55.3287 90.1273 55.3299 90.0864 55.3218 90.0469C55.2995 89.9592 55.2488 89.8814 55.1777 89.8257C55.1066 89.7701 55.0191 89.7397 54.929 89.7394C54.889 89.7366 54.8488 89.7431 54.8117 89.7585C54.7746 89.7738 54.7415 89.7976 54.7151 89.828C54.6886 89.8583 54.6695 89.8944 54.6592 89.9334C54.649 89.9724 54.6478 90.0133 54.6559 90.0528C54.6782 90.1405 54.7289 90.2183 54.8 90.2739C54.871 90.3296 54.9585 90.36 55.0486 90.3603V90.3603Z" fill="#6C8AC5"/>
<path d="M56.8165 85.047L62.1098 85.0034L62.261 85.7798L56.9678 85.8234L56.8165 85.047Z" fill="#6C8AC5"/>
<path d="M57.112 86.5646L62.4053 86.521L62.5553 87.2974L57.2621 87.341L57.112 86.5646Z" fill="#6C8AC5"/>
<path d="M57.7016 89.5992L65.7101 89.5332L65.8614 90.3096L57.8517 90.3755L57.7016 89.5992Z" fill="#6C8AC5"/>
<path d="M64.8262 84.981L64.9774 85.7573L63.0934 85.7726L62.9434 84.9963L64.8262 84.981Z" fill="#6C8AC5"/>
<path d="M65.1216 86.4985L65.2717 87.2749L63.3888 87.2902L63.2376 86.5139L65.1216 86.4985Z" fill="#6C8AC5"/>
<path d="M244.261 194.949C244.385 194.948 244.504 194.904 244.598 194.822C244.692 194.741 244.754 194.629 244.772 194.506L249.721 161.232C249.738 161.098 249.701 160.961 249.62 160.853C249.538 160.744 249.417 160.672 249.283 160.652C249.149 160.632 249.013 160.665 248.903 160.745C248.794 160.825 248.719 160.944 248.696 161.078L243.749 194.351C243.729 194.487 243.763 194.626 243.845 194.736C243.926 194.846 244.048 194.92 244.183 194.94C244.209 194.945 244.235 194.948 244.261 194.949V194.949Z" fill="#324B7F"/>
<path fill-rule="evenodd" clip-rule="evenodd" d="M264.669 104.511C264.816 104.502 264.959 104.529 265.081 104.608C265.086 104.612 265.091 104.615 265.095 104.619C264.926 104.609 264.755 104.599 264.586 104.588C264.614 104.563 264.642 104.537 264.669 104.511ZM263.076 105.566C263.145 106.109 263.176 106.656 263.169 107.204C263.169 107.875 263.972 112.87 264.341 113.76C264.425 113.963 264.555 113.974 264.724 113.988C264.816 113.996 264.92 114.005 265.034 114.046C265.472 114.2 265.707 114.363 265.879 114.482C266.203 114.706 266.297 114.772 267.097 114.315C267.133 114.295 267.507 114.212 267.966 114.111C268.746 113.939 269.772 113.713 269.794 113.648C269.829 113.545 268.625 108.81 268.588 108.715C268.386 108.208 268.313 107.74 268.232 107.222C268.215 107.11 268.197 106.995 268.177 106.877C268.14 106.654 268.141 106.355 268.143 106.055C268.144 105.68 268.145 105.304 268.072 105.077C267.953 104.718 267.486 104.723 267.091 104.726C266.995 104.727 266.904 104.728 266.822 104.724C266.759 104.72 266.556 104.708 266.272 104.691L266.272 104.691L266.165 104.684L267.143 104.077C267.182 103.737 267.229 103.482 267.249 103.377C267.688 102.43 267.878 101.386 267.802 100.344L267.47 96.1025C267.34 94.4344 266.497 93.1078 265.325 92.3691L258.489 96.0193C258.489 96.018 258.489 96.0167 258.489 96.0154L258.058 96.251L258.316 102.299C258.378 103.017 258.606 103.71 258.982 104.324C259.358 104.937 259.872 105.454 260.482 105.832C260.701 105.884 260.925 105.916 261.15 105.928C261.813 105.949 262.47 105.824 263.076 105.566ZM258.49 96.2793C258.491 96.3752 258.489 96.4721 258.488 96.57V96.5701L258.488 96.5702C258.487 96.6164 258.487 96.6629 258.486 96.7095C258.485 96.6106 258.487 96.5125 258.488 96.4155C258.489 96.3698 258.49 96.3244 258.49 96.2793Z" fill="white"/>
<path fill-rule="evenodd" clip-rule="evenodd" d="M264.59 104.329L264.541 104.376C264.514 104.401 264.488 104.426 264.461 104.451L264.136 104.748L264.575 104.775C264.744 104.785 264.915 104.795 265.084 104.805L265.568 104.835L266.259 104.877L266.261 104.877L266.28 104.878C266.554 104.895 266.75 104.907 266.811 104.91L266.812 104.91C266.899 104.915 266.996 104.914 267.089 104.913L267.093 104.913C267.297 104.911 267.488 104.91 267.642 104.947C267.79 104.983 267.864 105.042 267.895 105.136C267.924 105.225 267.941 105.355 267.95 105.52C267.958 105.683 267.957 105.866 267.957 106.055L267.957 106.067C267.956 106.357 267.954 106.669 267.994 106.908L267.994 106.908C268.013 107.025 268.031 107.139 268.049 107.251L268.05 107.259C268.13 107.772 268.206 108.258 268.415 108.784M268.415 108.784C268.413 108.781 268.414 108.782 268.417 108.792C268.419 108.8 268.423 108.814 268.428 108.834C268.439 108.873 268.454 108.929 268.472 108.998C268.508 109.136 268.558 109.329 268.617 109.558C268.734 110.016 268.887 110.62 269.038 111.224C269.188 111.828 269.336 112.432 269.445 112.89C269.499 113.12 269.543 113.312 269.572 113.449C269.579 113.481 269.585 113.509 269.589 113.534C269.579 113.537 269.568 113.541 269.556 113.544C269.449 113.576 269.298 113.615 269.121 113.658C268.766 113.743 268.317 113.842 267.926 113.929L267.925 113.929C267.697 113.979 267.488 114.025 267.332 114.061C267.254 114.079 267.187 114.095 267.138 114.108C267.113 114.114 267.091 114.12 267.073 114.126L267.072 114.126C267.06 114.129 267.032 114.138 267.007 114.152L267.006 114.153C266.599 114.385 266.411 114.459 266.295 114.468C266.206 114.475 266.155 114.446 265.984 114.328C265.807 114.206 265.556 114.032 265.096 113.87C264.959 113.82 264.835 113.81 264.744 113.803L264.739 113.802C264.646 113.794 264.607 113.789 264.579 113.776C264.565 113.769 264.541 113.756 264.513 113.688L264.513 113.688C264.428 113.485 264.312 113.024 264.184 112.416C264.057 111.815 263.923 111.089 263.8 110.369C263.676 109.648 263.565 108.935 263.484 108.36C263.403 107.78 263.355 107.358 263.355 107.205C263.362 106.649 263.33 106.093 263.26 105.543L263.229 105.298L263.003 105.394C262.422 105.642 261.793 105.761 261.158 105.741C260.954 105.731 260.752 105.703 260.554 105.658C259.98 105.296 259.496 104.806 259.141 104.226C258.78 103.638 258.562 102.975 258.502 102.287L258.249 96.3592L258.304 96.3292C258.304 96.3567 258.303 96.3845 258.303 96.4125L258.303 96.4136C258.301 96.51 258.3 96.6098 258.3 96.7108L258.672 96.7115C258.672 96.6655 258.673 96.6197 258.674 96.5738C258.674 96.5734 258.674 96.5731 258.674 96.5728L258.674 96.5724V96.5714C258.675 96.4741 258.676 96.3761 258.676 96.279L258.401 96.2777L265.316 92.5854C266.39 93.3018 267.163 94.5486 267.285 96.1171L267.617 100.357C267.617 100.358 267.617 100.358 267.617 100.358C267.69 101.368 267.506 102.38 267.08 103.299L267.07 103.32L267.066 103.342C267.048 103.44 267.006 103.664 266.969 103.966L265.634 104.793L265.207 104.47C265.201 104.466 265.195 104.461 265.189 104.457L265.185 104.454L265.181 104.451C265.019 104.346 264.834 104.314 264.657 104.325L264.59 104.329M267.143 104.077C267.182 103.737 267.229 103.482 267.249 103.377C267.688 102.43 267.878 101.386 267.802 100.344L267.47 96.1025C267.34 94.4344 266.497 93.1078 265.325 92.3691L258.489 96.0193L258.489 96.0154L258.058 96.251L258.316 102.299C258.378 103.017 258.606 103.71 258.982 104.324C259.358 104.937 259.872 105.454 260.482 105.832C260.701 105.884 260.925 105.916 261.15 105.928C261.748 105.947 262.342 105.847 262.897 105.638C262.957 105.615 263.017 105.591 263.076 105.566C263.084 105.63 263.091 105.695 263.099 105.759C263.151 106.238 263.175 106.721 263.169 107.204C263.169 107.875 263.972 112.87 264.341 113.76C264.425 113.963 264.555 113.974 264.724 113.988C264.816 113.996 264.92 114.005 265.034 114.046C265.472 114.2 265.707 114.363 265.879 114.482C266.203 114.706 266.297 114.772 267.097 114.315C267.133 114.295 267.507 114.212 267.966 114.111C268.746 113.939 269.772 113.713 269.794 113.648C269.829 113.545 268.625 108.81 268.588 108.715C268.386 108.208 268.313 107.74 268.232 107.222C268.215 107.11 268.197 106.995 268.177 106.877C268.14 106.654 268.141 106.355 268.143 106.055C268.144 105.68 268.145 105.304 268.072 105.077C267.953 104.718 267.486 104.723 267.091 104.726C266.995 104.727 266.904 104.728 266.822 104.724C266.777 104.721 266.657 104.714 266.487 104.704C266.426 104.7 266.36 104.696 266.288 104.691L266.272 104.691L266.165 104.684L266.277 104.614L266.279 104.613L267.143 104.077ZM258.486 96.7095C258.487 96.6629 258.487 96.6164 258.488 96.5702L258.488 96.57C258.489 96.5182 258.489 96.4667 258.49 96.4155C258.49 96.3699 258.49 96.3244 258.49 96.2793C258.49 96.3244 258.489 96.3698 258.488 96.4155C258.488 96.4667 258.487 96.5183 258.486 96.57C258.486 96.6163 258.486 96.6629 258.486 96.7095ZM265.074 104.618C265.074 104.618 265.075 104.618 265.075 104.618C265.082 104.618 265.089 104.619 265.095 104.619C265.091 104.615 265.086 104.612 265.081 104.608C264.959 104.529 264.816 104.502 264.669 104.511C264.642 104.537 264.614 104.563 264.586 104.588C264.615 104.59 264.645 104.592 264.674 104.594C264.7 104.595 264.726 104.597 264.751 104.598C264.859 104.605 264.967 104.611 265.074 104.618Z" fill="#273B63"/>
<path d="M257.461 93.4233C257.849 92.4561 259.109 92.3218 260.04 91.9484C261.503 91.3593 260.944 91.496 261.681 90.7703C262.014 90.4427 263.584 90.0917 264.032 90.041C264.103 90.1518 263.618 90.4804 263.713 90.5806C263.92 90.7997 263.619 90.954 263.947 91.106C265.693 91.9224 266.78 93.2266 267.591 94.744C267.523 94.8553 267.468 94.9739 267.426 95.0974C267.369 95.2737 267.37 95.4638 267.429 95.6393C267.488 95.8149 267.602 95.9665 267.754 96.0717C267.905 96.1607 268.082 96.1948 268.256 96.1683C268.842 97.5726 269.304 99.0853 269.882 100.548C269.778 100.809 269.709 101.083 269.677 101.361C269.566 102.568 270.772 104.102 268.556 104.693C266.764 105.171 267.236 105.38 266.58 105.802C266.419 105.903 266.231 105.956 266.04 105.952C263.819 105.911 262.008 104.609 261.116 102.609C260.419 101.939 259.803 101.187 259.282 100.371C259.255 100.461 259.217 100.536 259.143 100.532C258.869 100.516 258.825 99.4081 258.777 99.1277C258.652 98.3867 257.782 97.4784 257.512 96.788C257.144 95.8714 257.071 94.3953 257.461 93.4233ZM268.666 102.37C268.467 102.665 268.226 102.93 267.952 103.157C268.241 102.946 268.484 102.678 268.666 102.37V102.37Z" fill="#91A7D3"/>
<path d="M260.225 103.084C259.553 103.195 258.987 102.495 258.961 101.529C258.937 100.969 259.115 100.419 259.463 99.9807C259.569 99.9097 259.689 99.8609 259.815 99.8369C260.488 99.725 261.053 100.426 261.078 101.392C261.102 101.951 260.924 102.5 260.577 102.938C260.47 103.008 260.35 103.058 260.225 103.084Z" fill="white"/>
<path fill-rule="evenodd" clip-rule="evenodd" d="M259.147 101.522L259.147 101.521C259.125 101.016 259.282 100.52 259.59 100.121C259.669 100.072 259.756 100.038 259.847 100.021C260.103 99.979 260.35 100.087 260.545 100.328C260.743 100.572 260.881 100.947 260.893 101.397L260.893 101.398L260.893 101.4C260.914 101.904 260.757 102.399 260.45 102.797C260.37 102.846 260.283 102.881 260.191 102.9C259.936 102.941 259.69 102.833 259.495 102.592C259.297 102.348 259.159 101.974 259.147 101.524L259.147 101.522ZM260.225 103.084C260.35 103.058 260.47 103.008 260.577 102.938C260.924 102.5 261.102 101.951 261.078 101.392C261.053 100.426 260.488 99.725 259.815 99.8369C259.689 99.8609 259.569 99.9097 259.463 99.9807C259.115 100.419 258.937 100.969 258.961 101.529C258.987 102.495 259.553 103.195 260.225 103.084Z" fill="#273B63"/>
<path d="M245.611 183.334L247.019 190.821L243.587 191.823L241.555 183.195L245.611 183.334Z" fill="white"/>
<path fill-rule="evenodd" clip-rule="evenodd" d="M246.806 190.689L243.723 191.589L241.792 183.39L245.456 183.515L246.806 190.689ZM245.611 183.334L247.019 190.821L243.587 191.823L241.555 183.195L245.611 183.334Z" fill="#273B63"/>
<path d="M266.603 183.666L268.011 191.154L264.56 191.431L262.546 183.528L266.603 183.666Z" fill="white"/>
<path fill-rule="evenodd" clip-rule="evenodd" d="M268.011 191.154L264.56 191.431L262.546 183.528L266.603 183.666L268.011 191.154ZM266.448 183.848L267.79 190.985L264.702 191.232L262.788 183.723L266.448 183.848Z" fill="#273B63"/>
<path d="M247.029 190.837C244.63 191.087 239.444 192.917 239.444 192.917C237.73 193.475 238.333 195.182 240.255 195.209L247.567 195.314C247.919 195.314 248.186 195.113 248.127 194.885L247.113 190.965C247.096 190.916 247.067 190.872 247.029 190.837V190.837Z" fill="#91A7D3"/>
<path d="M267.745 190.711C265.346 190.961 260.159 192.791 260.159 192.791C258.445 193.349 259.049 195.056 260.969 195.083L268.283 195.188C268.634 195.188 268.902 194.987 268.843 194.759L267.829 190.839C267.812 190.79 267.783 190.746 267.745 190.711V190.711Z" fill="#91A7D3"/>
<path d="M258.478 153.259L259.74 153.86C259.953 156.126 261.07 158.942 262.522 163.675C264.136 168.939 266.144 175.49 267.43 181.854C267.502 182.21 267.492 182.577 267.4 182.928C267.308 183.278 267.137 183.603 266.9 183.877C266.665 184.151 266.373 184.371 266.045 184.52C265.717 184.67 265.36 184.747 265 184.745H264.96L260.295 184.675C259.78 184.671 259.279 184.506 258.863 184.202C258.446 183.897 258.135 183.469 257.973 182.978C255.33 174.804 253.095 169.005 251.299 164.345C249.75 160.33 248.633 157.43 248.016 154.938L247.859 154.307L258.478 153.259Z" fill="#11192B"/>
<path d="M264.027 90.0244C264.027 90.0244 276.286 90.9233 270.974 103.073C270.974 103.073 256.591 93.2147 264.027 90.0244Z" fill="#91A7D3"/>
<path d="M278.829 160.165C278.83 160.312 278.801 160.456 278.745 160.591C278.69 160.726 278.608 160.849 278.506 160.953C278.403 161.056 278.281 161.138 278.146 161.194C278.012 161.25 277.868 161.279 277.723 161.279H247.508C247.221 161.269 246.948 161.148 246.748 160.94C246.548 160.733 246.436 160.455 246.436 160.166C246.436 159.877 246.548 159.599 246.748 159.392C246.948 159.184 247.221 159.063 247.508 159.053H277.723C277.868 159.053 278.012 159.082 278.146 159.138C278.281 159.193 278.403 159.275 278.506 159.379C278.608 159.482 278.69 159.605 278.745 159.74C278.801 159.875 278.83 160.019 278.829 160.165V160.165Z" fill="#DAE1F0"/>
<path d="M282.127 195.329C282.153 195.331 282.179 195.331 282.205 195.329C282.34 195.309 282.462 195.235 282.544 195.125C282.625 195.014 282.66 194.876 282.641 194.74L277.693 161.461C277.67 161.327 277.596 161.207 277.486 161.128C277.376 161.048 277.24 161.015 277.106 161.035C276.972 161.055 276.851 161.127 276.77 161.236C276.688 161.344 276.652 161.48 276.669 161.615L281.616 194.888C281.635 195.011 281.697 195.123 281.79 195.204C281.884 195.285 282.004 195.329 282.127 195.329V195.329Z" fill="#324B7F"/>
<path d="M266.967 194.949C266.993 194.951 267.019 194.951 267.045 194.949C267.18 194.928 267.302 194.855 267.384 194.744C267.465 194.634 267.5 194.496 267.481 194.36L262.533 161.086C262.51 160.952 262.436 160.833 262.326 160.753C262.216 160.674 262.08 160.64 261.946 160.661C261.812 160.681 261.692 160.753 261.61 160.861C261.528 160.97 261.492 161.106 261.509 161.241L266.456 194.504C266.474 194.628 266.536 194.741 266.63 194.822C266.723 194.904 266.843 194.949 266.967 194.949V194.949Z" fill="#324B7F"/>
<path d="M215.44 43.6735C210.539 44.5983 205.458 46.184 202.14 49.9257C199.384 53.0347 198.194 57.3218 198.225 61.4864C198.257 65.651 199.415 69.7331 200.883 73.6208C202.58 78.1258 204.697 82.4593 207.206 86.5635C208.658 88.9409 210.291 91.29 212.562 92.8946C217.407 96.3181 223.978 95.6372 229.72 94.1763C237.109 92.2959 244.198 89.3802 250.778 85.5149C254.412 83.379 257.985 80.8508 260.187 77.2459C262.165 74.0096 262.877 70.1772 263.553 66.4391C264.421 61.6454 264.913 55.7467 262.098 51.416C259.791 47.864 254.713 46.7825 250.911 45.6303C239.462 42.1679 227.189 41.4551 215.44 43.6735Z" fill="#B5C4E2"/>
<path d="M215.979 65.5684C216.184 65.4105 216.397 65.2632 216.616 65.1231C216.692 64.8471 216.788 64.5773 216.904 64.3161C216.37 62.7221 216.242 61.0009 216.703 59.361C217.369 56.9883 219.15 54.8842 221.476 54.0265C221.987 53.8394 222.52 53.7182 223.062 53.666C223.6 52.7984 224.257 52.0108 225.013 51.3263C228.647 48.063 234.288 47.8921 238.408 50.3285C239.442 50.9336 240.366 51.709 241.144 52.6222C241.501 53.0381 241.815 53.4892 242.081 53.9688C242.649 54.1439 243.13 54.5292 243.426 55.0468C243.943 55.9303 243.879 56.9541 243.572 57.9001L243.677 57.9331C244.99 58.3714 246.293 59.1218 247.009 60.3553C247.687 61.5228 247.779 63.0237 246.949 64.1405C246.894 64.2147 246.832 64.2795 246.77 64.349L246.404 64.7213C245.946 65.1163 245.433 65.4404 244.88 65.6827C245.913 66.8513 246.243 68.5725 245.974 70.1347C246.464 70.4276 246.901 70.8039 247.263 71.2468C247.653 71.7393 247.92 72.3472 247.831 72.9881C247.742 73.6289 247.315 74.1296 246.804 74.4996C246.218 74.9225 245.534 75.2182 244.873 75.4962C244.577 75.6211 244.276 75.7319 243.975 75.8426C244.018 75.9961 244.044 76.1543 244.051 76.3138C244.091 77.5226 243.355 78.6206 242.527 79.4299C241.536 80.3963 240.363 81.1548 239.077 81.6612C236.71 82.6092 234.077 82.6369 231.691 81.739C230.428 82.619 228.912 82.8912 227.398 82.8464C226.091 82.805 224.798 82.5732 223.558 82.1584C221.105 81.3235 218.899 79.8863 217.139 77.9773C215.572 76.2915 214.312 74.238 213.644 72.022C213.549 71.6908 213.485 71.3511 213.455 71.0077C213.313 69.5699 213.711 68.1308 214.571 66.9727C214.893 66.5426 215.264 66.151 215.675 65.8052L215.979 65.5684ZM216.224 65.8476C216.295 65.9371 216.368 66.0255 216.442 66.1138C216.455 65.956 216.476 65.8005 216.503 65.6426C216.408 65.7109 216.315 65.7781 216.224 65.8476V65.8476ZM216.797 66.4779C217.099 66.7118 217.471 66.8337 217.852 66.8231C217.898 66.7453 217.94 66.664 217.988 66.5874C217.703 66.1388 217.453 65.6694 217.238 65.1831C217.138 65.2385 217.041 65.3009 216.943 65.3563C216.855 65.7238 216.806 66.0998 216.797 66.4779V66.4779ZM243.6 64.7178L243.654 64.7402C243.736 64.7802 243.813 64.8274 243.888 64.8721C243.882 64.8215 243.872 64.7708 243.865 64.7201L243.6 64.7178ZM243.797 64.342C243.697 63.9104 243.54 63.4945 243.328 63.1061C243.297 63.0508 243.261 62.9989 243.228 62.9447C243.418 63.388 243.537 63.8588 243.58 64.3396L243.797 64.342ZM243.574 65.1254C243.549 65.3639 243.506 65.6002 243.446 65.8323C243.603 65.7793 243.758 65.7239 243.915 65.6662C243.921 65.5578 243.926 65.4482 243.923 65.3386C243.812 65.2612 243.696 65.1901 243.577 65.1254H243.574ZM243.356 66.2576L243.312 66.2705C243.09 66.9008 242.746 67.4803 242.298 67.9752C242.149 68.1393 241.989 68.2928 241.819 68.4347L242.368 68.6232C242.996 68.1862 243.465 67.5556 243.705 66.8266C243.782 66.5845 243.838 66.3362 243.872 66.0844C243.695 66.1445 243.526 66.2022 243.356 66.2576V66.2576ZM240.659 58.4055C240.652 58.6608 240.623 58.9149 240.574 59.1654C240.896 59.6366 241.263 60.0702 241.629 60.5049C242.252 59.8112 242.75 59.0139 243.1 58.1487C242.605 58.0108 242.099 57.9123 241.588 57.8542C241.303 58.0776 240.99 58.263 240.657 58.4055H240.659ZM241.011 57.8059C240.894 57.8 240.77 57.7941 240.648 57.7941C240.655 57.8624 240.656 57.9307 240.659 57.9991C240.682 57.9885 240.705 57.9814 240.727 57.9696C240.818 57.9213 240.911 57.8636 240.998 57.8059H241.011ZM236.125 59.9394C236.046 59.9889 235.975 60.0466 235.901 60.102C235.727 60.3601 235.583 60.6367 235.469 60.9267C235.252 61.4975 235.176 62.1128 235.248 62.7197C236.402 62.6019 237.535 62.2933 238.506 61.6217C239.067 61.2387 239.526 60.7223 239.841 60.1185C238.653 59.5848 237.272 59.2255 236.118 59.9394H236.125ZM239.993 59.7698C240.066 59.5938 240.126 59.4126 240.173 59.2278C240.056 59.0523 239.947 58.8744 239.846 58.6894C238.888 58.9522 237.875 59.0205 236.873 59.0346C236.746 59.1383 236.624 59.2467 236.508 59.3621C237.211 59.1301 237.966 59.1121 238.679 59.3103C239.127 59.4288 239.566 59.5824 239.99 59.7698H239.993ZM227.684 68.1072C227.651 68.0742 227.613 68.0471 227.58 68.0129C227.548 67.9788 227.514 67.9399 227.481 67.9022C227.375 68.0035 227.274 68.1084 227.177 68.2179C227.347 68.1954 227.515 68.1584 227.679 68.1072H227.684ZM226.841 68.635C226.74 68.7752 226.643 68.9189 226.555 69.0685C226.538 69.0956 226.524 69.1239 226.509 69.151C226.823 68.9383 227.147 68.7417 227.481 68.5619C227.269 68.6069 227.053 68.6314 226.836 68.635H226.841ZM227.528 67.3508C227.717 67.1926 227.916 67.0477 228.126 66.9173C228.918 66.4457 229.804 66.1542 230.72 66.0632C231 65.837 231.291 65.6073 231.597 65.3999C231.336 65.2681 231.093 65.1038 230.874 64.911C230.411 64.4797 230.044 63.9544 229.799 63.37C229.462 63.6457 229.127 63.9214 228.8 64.2077C228.244 64.693 227.613 65.2362 227.36 65.9536C227.274 66.1826 227.244 66.429 227.272 66.6721C227.301 66.9152 227.387 67.148 227.523 67.3508H227.528ZM227.754 67.6548C227.852 67.7654 227.959 67.8689 228.072 67.9646C228.838 67.6206 229.503 67.0752 230.15 66.5332C229.825 66.5975 229.506 66.6881 229.196 66.8042C228.671 67.0064 228.183 67.2938 227.75 67.6548H227.754ZM235.236 65.8181L235.181 65.7463C234.966 65.7804 234.751 65.8111 234.534 65.8334C234.291 65.8582 234.045 65.8688 233.797 65.87C233.789 65.9583 233.78 66.0479 233.772 66.1374C234.099 66.1763 234.425 66.221 234.752 66.267C234.902 66.115 235.066 65.9642 235.231 65.8181H235.236ZM235.203 66.3318L235.579 66.386C235.536 66.2953 235.488 66.2046 235.435 66.1162C235.352 66.1869 235.276 66.2599 235.198 66.3271L235.203 66.3318ZM234.861 65.4152C234.73 65.3032 234.585 65.2104 234.428 65.1395C234.255 65.0654 234.071 65.0212 233.883 65.0088C233.865 65.1714 233.85 65.3328 233.834 65.4953C234.176 65.4893 234.517 65.4626 234.856 65.4152H234.861ZM233.806 66.5167L233.734 66.5085C233.695 66.8513 233.649 67.193 233.588 67.5299C233.849 67.205 234.127 66.8935 234.42 66.5969C234.209 66.5686 234.004 66.5415 233.799 66.5167H233.806ZM233.806 63.1533C233.622 63.1533 233.438 63.1533 233.253 63.145C232.234 63.1167 231.215 63.0684 230.196 63.0402L230.101 63.1191C230.332 63.7007 230.688 64.2237 231.143 64.6506C231.389 64.8677 231.668 65.0439 231.97 65.1725C232.376 64.9216 232.827 64.7508 233.297 64.6695C233.387 64.6569 233.478 64.649 233.569 64.6459C233.612 64.1393 233.691 63.641 233.796 63.1533H233.806ZM232.95 65.1301C232.778 65.187 232.61 65.2559 232.448 65.3363C232.784 65.4263 233.129 65.4784 233.476 65.4918C233.493 65.3328 233.509 65.1737 233.527 65.0135C233.328 65.0308 233.131 65.07 232.94 65.1301H232.95ZM232.012 65.5778C231.796 65.712 231.586 65.8571 231.385 66.0125C231.661 66.0007 231.939 65.996 232.215 66.0055C232.617 66.0196 233.018 66.0514 233.418 66.0938L233.442 65.8582C232.949 65.8394 232.461 65.7449 231.997 65.5778H232.012ZM229.926 62.6561H230.073C230.522 62.2901 230.945 61.8937 231.34 61.4698C231.951 60.7982 232.513 59.93 232.733 59.0099C231.535 58.9977 230.337 59.0765 229.15 59.2455C229.238 59.8984 229.362 60.5458 229.522 61.1847C229.624 61.6822 229.754 62.1735 229.911 62.6561H229.926ZM232.801 58.64C232.857 58.2333 232.829 57.8192 232.718 57.4242C232.543 56.8174 232.132 56.2095 231.504 56.0104C230.824 55.7996 230.144 56.1624 229.715 56.6843C229.206 57.3028 229.08 58.0792 229.12 58.8768C230.334 58.7058 231.56 58.6267 232.786 58.64H232.801ZM230.651 62.662C231.722 62.7197 232.812 62.7798 233.899 62.7798C234.146 61.8244 234.542 60.9278 235.261 60.1774C235.39 60.0429 235.531 59.9199 235.681 59.8098C235.879 59.5328 236.103 59.2756 236.35 59.0417H235.677C234.829 59.0417 233.969 59.0205 233.106 59.0181C233.106 59.0323 233.106 59.0464 233.106 59.0605C232.762 60.5226 231.729 61.7007 230.636 62.662H230.651ZM235.046 61.0256C234.706 61.5671 234.446 62.1552 234.273 62.7716C234.467 62.7716 234.66 62.7574 234.854 62.7445C234.796 62.1643 234.862 61.5785 235.046 61.0256V61.0256ZM234.929 63.2322C234.921 63.1933 234.918 63.1556 234.91 63.1144C234.665 63.1309 234.419 63.1403 234.174 63.145C234.058 63.6384 233.972 64.1385 233.917 64.6424C234.201 64.6603 234.479 64.7386 234.731 64.8721C234.946 64.9953 235.14 65.152 235.306 65.3363C235.496 65.3033 235.686 65.2656 235.874 65.2255C235.422 64.6363 235.1 63.9572 234.93 63.2334L234.929 63.2322ZM235.714 65.8711C235.774 65.9689 235.832 66.0667 235.883 66.1669C235.935 66.267 235.965 66.3506 236 66.4425C236.309 66.4838 236.616 66.5226 236.924 66.5533C237.007 66.5627 237.089 66.5662 237.172 66.5733C237.125 66.5356 237.077 66.5003 237.03 66.4555C236.708 66.1804 236.409 65.8794 236.135 65.5554L236.057 65.5719C235.943 65.6744 235.83 65.7745 235.715 65.8723L235.714 65.8711ZM237.849 66.6169C237.871 66.5952 237.888 66.5691 237.9 66.5403C238.162 65.9889 238.551 65.5081 239.034 65.1372C239.294 64.9564 239.578 64.815 239.879 64.7178C239.49 64.7779 239.107 64.8544 238.734 64.9369C238.003 65.0983 237.277 65.2903 236.547 65.4671C236.933 65.9021 237.371 66.2886 237.85 66.6181L237.849 66.6169ZM238.01 67.9128C238.155 68.5985 238.856 68.9448 239.501 68.9731C240.03 68.9783 240.549 68.8315 240.998 68.5501C240.931 68.5266 240.865 68.5042 240.798 68.4795C239.836 68.1497 238.912 67.7184 238.041 67.193C237.974 67.4295 237.964 67.6785 238.011 67.9199L238.01 67.9128ZM241.394 68.2804C242.042 67.7948 242.548 67.144 242.861 66.3954C241.44 66.8024 239.969 67.0074 238.492 67.0045C239.383 67.5405 240.385 67.9316 241.396 68.2874L241.394 68.2804ZM238.971 69.27C238.418 69.1286 237.916 68.7563 237.707 68.2097C237.575 67.8109 237.58 67.3789 237.721 66.9833C237.193 66.9526 236.666 66.8985 236.14 66.8313C236.395 67.7172 236.297 68.6468 235.723 69.4161C236.024 69.3908 236.326 69.386 236.628 69.4019C238.019 69.4714 239.452 69.6246 240.825 69.3065C241.218 69.2141 241.597 69.0691 241.952 68.8753C241.786 68.8199 241.62 68.7634 241.454 68.7057C240.724 69.2111 239.843 69.4985 238.972 69.2723L238.971 69.27ZM235.842 68.3687C235.975 67.8399 235.94 67.2824 235.741 66.7747L234.853 66.651C234.295 67.1956 233.796 67.7987 233.366 68.45C233.309 68.6491 233.249 68.8459 233.168 69.0391C233.52 69.3111 233.843 69.6195 234.132 69.9592C234.435 69.7328 234.785 69.576 235.155 69.4997C235.48 69.1942 235.717 68.8057 235.84 68.3758L235.842 68.3687ZM234.093 70.5117C234.078 70.5317 234.059 70.5482 234.044 70.5706C233.701 71.056 233.622 71.6969 233.731 72.2729C233.902 73.1707 234.494 73.8045 235.238 74.2086C235.271 72.9927 234.938 71.7952 234.282 70.7732C234.224 70.686 234.159 70.6048 234.094 70.5188L234.093 70.5117ZM233.775 70.117C233.544 69.8536 233.289 69.6112 233.016 69.3925C232.931 69.5762 232.837 69.7551 232.733 69.9285C232.706 69.9733 232.673 70.0122 232.645 70.0546C233.017 70.1324 233.398 70.1558 233.776 70.1241L233.775 70.117ZM232.738 68.7398C232.827 68.5827 232.921 68.4308 233.019 68.2839C233.142 67.8242 233.236 67.3571 233.3 66.8855C233.321 66.7453 233.34 66.6027 233.358 66.4602C232.528 66.359 231.689 66.3436 230.856 66.4143C230.657 66.5804 230.46 66.7477 230.27 66.9091C229.779 67.3326 229.256 67.7163 228.705 68.0565C229.663 67.7913 230.679 67.8325 231.613 68.1743C232.008 68.3238 232.385 68.5158 232.739 68.7469L232.738 68.7398ZM231.222 68.4406C230.409 68.1972 229.544 68.1972 228.732 68.4406C229.101 68.6762 229.481 68.8659 229.799 69.0296C230.543 69.4073 231.322 69.7111 232.125 69.9368L232.181 69.9509C232.287 69.6477 232.414 69.3525 232.562 69.0673C232.146 68.7991 231.696 68.5905 231.223 68.4477L231.222 68.4406ZM231.562 70.1559C230.799 69.9036 230.058 69.5884 229.347 69.2134C228.984 69.0259 228.631 68.8174 228.292 68.589C228.002 68.7004 227.721 68.8339 227.451 68.9884C227.005 69.2441 226.582 69.5362 226.162 69.8331C226.026 70.1565 225.914 70.4896 225.828 70.8298C226.504 71.1051 227.209 71.3004 227.93 71.4118C229.373 71.6321 230.945 71.4565 231.98 70.3197C231.991 70.3079 231.999 70.2949 232.01 70.2831C231.854 70.2549 231.707 70.2148 231.563 70.163L231.562 70.1559ZM226.178 67.2554C226.339 65.8782 226.347 64.468 226.413 63.0673C225.105 63.1273 223.801 63.2662 222.51 63.4831C222.416 63.6778 222.332 63.8772 222.259 64.0804C222.728 65.3328 223.449 66.479 224.46 67.3226C224.92 67.714 225.462 67.9959 226.046 68.1472C226.099 67.8586 226.144 67.5605 226.179 67.2625L226.178 67.2554ZM226.431 62.6903C226.472 61.7384 226.581 60.7907 226.757 59.8546C226.492 59.9535 226.229 60.0596 225.97 60.1821C224.688 60.7876 223.571 61.6889 222.821 62.9059C222.789 62.9577 222.762 63.0119 222.731 63.0649C223.958 62.8746 225.193 62.7519 226.433 62.6973L226.431 62.6903ZM226.415 68.2097C226.497 68.2203 226.58 68.2297 226.662 68.2332C226.842 68.0054 227.038 67.7912 227.249 67.5924C227.001 67.2389 226.878 66.8129 226.897 66.3813C226.94 65.698 227.345 65.1136 227.801 64.6318C228.37 64.0583 228.976 63.5227 229.614 63.0284C229.208 63.0201 228.801 63.0166 228.393 63.0213C227.857 63.026 227.321 63.0398 226.786 63.0625C226.706 64.7779 226.713 66.5321 226.416 68.212L226.415 68.2097ZM229.1 62.6314C229.239 62.6314 229.378 62.6384 229.516 62.6408C229.392 62.2662 229.282 61.8856 229.199 61.5157C229.006 60.7904 228.86 60.0534 228.762 59.3091C228.224 59.4059 227.692 59.539 227.171 59.7073C227.029 60.3702 226.929 61.0415 226.871 61.7172C226.843 62.0341 226.822 62.3545 226.804 62.675C227.571 62.6483 228.337 62.6361 229.101 62.6384L229.1 62.6314ZM228.734 58.938C228.688 58.3417 228.771 57.7423 228.978 57.1815C229.425 56.0552 230.709 55.161 231.896 55.7736C232.923 56.3038 233.262 57.5408 233.148 58.6341C234.273 58.6341 235.401 58.6671 236.515 58.6494H236.786C237.487 58.1106 238.301 57.7377 239.166 57.5585C239.234 57.5443 239.303 57.5373 239.371 57.5255C239.196 56.8643 239.228 56.165 239.462 55.5227C239.273 55.2325 239.051 54.9646 238.802 54.724C236.738 52.7483 233.427 52.8201 231.065 54.1761C229.847 54.8715 228.836 55.8794 228.134 57.0966C227.748 57.7871 227.456 58.5265 227.266 59.295C227.749 59.1501 228.239 59.0333 228.735 58.9451L228.734 58.938ZM238.347 58.1746C238.024 58.295 237.713 58.4473 237.419 58.6294C238.18 58.6191 238.937 58.5251 239.678 58.349C239.607 58.1958 239.543 58.0391 239.486 57.8777C239.098 57.9428 238.717 58.0446 238.347 58.1817V58.1746ZM239.665 57.1367C239.685 57.2486 239.719 57.3547 239.748 57.4619C239.903 57.4442 240.059 57.4324 240.217 57.4242C240.129 56.9025 239.958 56.3983 239.712 55.9303C239.607 56.3263 239.591 56.7408 239.665 57.1438V57.1367ZM239.863 57.8318C239.914 57.9696 239.965 58.1075 240.029 58.2406C240.115 58.2123 240.202 58.184 240.287 58.151C240.287 58.0332 240.277 57.9154 240.265 57.7976C240.131 57.8129 239.997 57.8247 239.863 57.8447V57.8318ZM240.277 60.3199L240.178 60.2705C239.672 61.2377 238.808 61.974 237.814 62.4299C237.016 62.7811 236.166 62.9992 235.298 63.0755C235.418 63.6639 235.649 64.2238 235.978 64.7249C236.045 64.8285 236.119 64.9239 236.19 65.0206C237.011 64.3726 237.859 63.7612 238.68 63.1356C239.597 62.4584 240.459 61.7099 241.26 60.8972C240.945 60.6859 240.617 60.4955 240.277 60.327V60.3199ZM240.931 60.2422C240.767 60.0395 240.607 59.8357 240.452 59.626C240.415 59.7438 240.374 59.8322 240.335 59.9241C240.543 60.0301 240.741 60.1385 240.931 60.2492V60.2422ZM241.563 61.114C240.163 62.6125 238.398 63.76 236.757 65.0253C237.626 64.8132 238.492 64.5811 239.372 64.4209C240.378 64.2371 241.432 64.1488 242.435 64.3384C242.691 64.3314 242.947 64.3286 243.202 64.3302C243.093 63.2016 242.519 62.2096 241.795 61.2978C241.717 61.2424 241.642 61.1799 241.563 61.121V61.114ZM242.394 64.7095C241.553 64.7272 240.709 64.8073 239.932 65.0877C239.398 65.2852 238.935 65.6404 238.605 66.1068C238.482 66.2707 238.371 66.444 238.274 66.6251C239.495 66.6475 240.715 66.5242 241.908 66.2576C242.283 66.1727 242.655 66.0726 243.022 65.9607C243.105 65.6967 243.164 65.4253 243.196 65.1501C243.205 65.0818 243.196 65.0158 243.206 64.9475C242.943 64.8455 242.671 64.7682 242.394 64.7166V64.7095ZM242.438 69.0367C241.741 69.4558 240.962 69.7156 240.154 69.7978C238.74 69.9709 237.34 69.7188 235.934 69.7636C235.742 69.7699 235.551 69.7895 235.363 69.8225C235.095 70.0607 234.781 70.2393 234.44 70.3468C234.467 70.3833 234.496 70.4186 234.522 70.4551C235.302 71.5779 235.645 72.9433 235.621 74.3028C235.621 74.3311 235.621 74.3594 235.621 74.3876C235.947 74.5243 236.287 74.6261 236.635 74.6916C238.248 74.9955 239.886 74.5879 241.501 74.5255C241.683 74.5184 241.868 74.5161 242.053 74.5255C242.521 74.2773 242.964 73.9863 243.378 73.656C244.346 72.8809 245.112 71.9231 245.47 70.719C245.507 70.593 245.54 70.4646 245.569 70.335C245.468 70.2772 245.37 70.2172 245.276 70.1747C244.359 69.7287 243.41 69.3507 242.438 69.0438V69.0367ZM235.534 75.3077L235.562 75.3183C236.844 75.7413 238.291 75.6953 239.598 75.4149C240.155 75.2944 240.699 75.1245 241.226 74.9072L240.764 74.9484C239.93 75.0191 239.1 75.1381 238.263 75.1687C237.371 75.1994 236.433 75.1086 235.592 74.787C235.578 74.9684 235.558 75.1416 235.534 75.3148V75.3077ZM240.97 75.4102C239.226 76.0464 237.237 76.2184 235.474 75.6612C235.407 76.0194 235.319 76.3735 235.211 76.7215C236.428 76.7606 237.646 76.7212 238.857 76.6036C240.426 76.4523 241.974 76.1271 243.472 75.6341L243.507 75.6199C243.409 75.4492 243.273 75.3036 243.11 75.1946C242.82 75.0144 242.489 74.9129 242.148 74.9001C241.767 75.098 241.374 75.2708 240.97 75.4173V75.4102ZM235.225 74.6315C234.915 74.4821 234.626 74.2928 234.365 74.0684C233.488 73.312 233.062 72.0197 233.462 70.9028C233.514 70.7575 233.581 70.6181 233.663 70.4869C233.25 70.5056 232.837 70.472 232.433 70.3868C232.187 71.2292 232.148 72.1186 232.544 72.9221C233.062 73.9753 234.092 74.734 235.171 75.1711C235.194 74.9991 235.211 74.8188 235.223 74.6386L235.225 74.6315ZM233.452 74.5903C232.367 73.7197 231.733 72.4933 231.91 71.0784C231.919 71.003 231.936 70.9299 231.949 70.8557C231.281 71.4278 230.451 71.7755 229.577 71.85C228.287 71.9772 226.94 71.6874 225.741 71.2032C225.669 71.5557 225.621 71.9127 225.598 72.2718C226.412 73.0405 226.954 74.0559 227.14 75.1628C227.174 75.3903 227.195 75.6197 227.202 75.8497C227.978 75.9145 228.748 76.0181 229.49 76.1253C231.035 76.3504 232.575 76.5824 234.134 76.679C234.361 76.692 234.59 76.6991 234.819 76.7085C234.943 76.3279 235.041 75.9395 235.114 75.5457C234.513 75.319 233.951 74.999 233.449 74.5973L233.452 74.5903ZM226.83 75.8131C226.83 75.7201 226.83 75.627 226.817 75.5328C226.711 74.5069 226.277 73.5434 225.578 72.7878C225.575 73.8102 225.754 74.8249 226.108 75.7837C226.348 75.7931 226.588 75.8053 226.828 75.8202L226.83 75.8131ZM226.263 76.1666C226.397 76.4802 226.55 76.7854 226.72 77.0808C226.787 76.7898 226.826 76.4932 226.837 76.1949C226.642 76.1839 226.45 76.1752 226.26 76.1689L226.263 76.1666ZM225.65 69.7436C225.779 69.3502 225.887 68.9498 225.972 68.5443C224.185 68.1154 222.815 66.2682 222.095 64.6224C221.901 65.3412 221.877 66.0953 222.022 66.8254C222.354 68.3887 223.441 69.5515 224.784 70.3303C225.075 70.1453 225.362 69.9474 225.647 69.7436H225.65ZM221.598 65.2173C221.65 64.8212 221.743 64.4316 221.874 64.0545C221.824 63.9155 221.769 63.7777 221.724 63.6363L221.629 63.6563C221.505 64.0199 221.337 64.3669 221.129 64.6895C220.543 65.6461 219.811 66.6487 218.749 67.0351C219.483 68.0239 220.373 68.8852 221.384 69.5845C222.116 70.0911 222.909 70.4881 223.688 70.9252C223.941 70.8142 224.188 70.6883 224.427 70.5482C223.693 70.1083 223.051 69.5307 222.535 68.847C221.767 67.8053 221.43 66.5053 221.595 65.2197L221.598 65.2173ZM218.371 67.1447C218.27 67.1663 218.167 67.1824 218.064 67.193C217.764 67.7054 217.519 68.2484 217.333 68.8129C217.455 69.0464 217.599 69.268 217.762 69.475C218.56 70.4526 219.685 71.105 220.927 71.3104C221.701 71.4374 222.495 71.3661 223.234 71.1031C222.497 70.6943 221.747 70.3067 221.06 69.8166C220.025 69.0785 219.117 68.176 218.371 67.1447ZM218.704 66.6605C219.408 66.3836 219.94 65.7793 220.363 65.1714C220.658 64.7508 221.01 64.263 221.205 63.747C221.027 63.7871 220.853 63.8307 220.667 63.8766C219.832 64.7038 219.081 65.6113 218.423 66.5863L218.518 66.7253C218.585 66.7029 218.648 66.6805 218.709 66.6605H218.704ZM218.207 66.2446C218.733 65.4713 219.321 64.7431 219.966 64.0675C219.137 64.305 218.332 64.6206 217.562 65.01C217.751 65.436 217.968 65.8485 218.212 66.2446H218.207ZM220.476 63.535C220.748 63.2593 221.023 62.9895 221.296 62.7221C221.155 62.2638 220.71 62.0152 220.2 62.0152C219.591 62.0235 219.02 62.3015 218.559 62.6844C218.023 63.1348 217.591 63.6978 217.295 64.3337C217.333 64.4398 217.375 64.5446 217.412 64.6495C218.391 64.1656 219.421 63.7922 220.482 63.5361L220.476 63.535ZM221.179 63.3665C221.228 63.3559 221.277 63.3441 221.326 63.3347C221.333 63.2923 221.335 63.2511 221.34 63.2086L221.179 63.3665ZM225.155 70.5364C225.206 70.5635 225.259 70.5871 225.312 70.613C225.349 70.5305 225.382 70.4457 225.416 70.3621L225.155 70.5364ZM225.079 71.8323C225.137 71.8771 225.196 71.9254 225.249 71.9725C225.266 71.7923 225.29 71.612 225.319 71.4341C225.244 71.5661 225.164 71.698 225.08 71.8288L225.079 71.8323ZM225.148 70.9547C225.031 70.8958 224.913 70.8368 224.796 70.7709C224.573 70.9075 224.348 71.0395 224.113 71.1573C224.325 71.3081 224.555 71.4565 224.778 71.6132L224.796 71.5861C224.926 71.3776 225.041 71.1655 225.149 70.9511L225.148 70.9547ZM223.671 71.3564C222.678 71.7657 221.583 71.857 220.537 71.6179C219.346 71.3487 218.278 70.6898 217.5 69.7447C217.391 69.6052 217.288 69.4601 217.193 69.31C217.159 69.4432 217.126 69.5775 217.098 69.7153C216.817 71.129 217.098 72.6429 218.342 73.4958C218.837 73.8216 219.395 74.0388 219.98 74.1332C220.564 74.2276 221.162 74.1971 221.734 74.0436C222.906 73.7303 223.87 72.8997 224.567 71.9231C224.278 71.7157 223.978 71.5296 223.672 71.3528L223.671 71.3564ZM217.116 68.3298C217.132 68.2851 217.147 68.2379 217.165 68.1944C217.302 67.8511 217.459 67.516 217.634 67.1906C217.342 67.1643 217.059 67.0764 216.803 66.9326C216.836 67.4116 216.942 67.8827 217.116 68.3298ZM222.729 54.0866C221.472 54.301 220.304 54.8777 219.367 55.7465C218.398 56.622 217.665 57.7286 217.235 58.964C216.805 60.1995 216.691 61.524 216.905 62.8152C216.963 63.1595 217.042 63.5001 217.139 63.8354C217.295 63.5559 217.476 63.2909 217.679 63.0437C218.382 62.1955 219.491 61.4403 220.642 61.6818C220.91 61.7383 221.155 61.8732 221.346 62.0694C220.913 59.3151 221.428 56.495 222.807 54.0748L222.729 54.0866ZM223.28 54.0312C222.106 55.9864 221.514 58.2387 221.574 60.5214C221.591 61.1144 221.654 61.7052 221.762 62.2885L221.906 62.1507C222.879 61.2235 223.863 60.3023 224.753 59.2914C225.599 58.3301 226.58 56.8787 226.178 55.5215C225.811 54.2833 224.449 53.97 223.28 54.0312V54.0312ZM239.541 51.5714C238.592 50.8011 237.522 50.194 236.376 49.7747C234.083 48.922 231.584 48.8075 229.224 49.4472C226.884 50.1104 224.86 51.6001 223.525 53.6425C224.09 53.6268 224.652 53.7283 225.176 53.9405C225.756 54.1742 226.22 54.6297 226.465 55.207C226.7 55.796 226.672 56.444 226.503 57.0425C226.129 58.3655 225.191 59.4104 224.26 60.3753C223.483 61.1823 222.663 61.9445 221.856 62.7185C221.892 62.8823 221.933 63.0449 221.973 63.2063L222.258 63.1556C222.531 62.6321 222.867 62.1445 223.259 61.7042C224.197 60.6569 225.433 59.9371 226.741 59.4658C226.777 59.4529 226.814 59.4434 226.849 59.4305C226.986 58.8432 227.174 58.2692 227.412 57.7151C228.5 55.1952 230.902 53.2796 233.625 52.8908C235.853 52.5716 238.304 53.3043 239.646 55.1292C239.843 54.7724 240.118 54.4657 240.451 54.2327C240.791 53.9934 241.199 53.8726 241.614 53.8887C241.087 52.998 240.325 52.2134 239.541 51.5714V51.5714ZM241.976 54.6203C241.929 54.5025 241.874 54.3847 241.818 54.2739C241.748 54.2611 241.678 54.2536 241.608 54.2515C240.959 54.2362 240.393 54.6533 240.047 55.1787C239.984 55.2767 239.928 55.3786 239.877 55.4838C239.99 55.6653 240.092 55.8538 240.181 56.0481C240.377 56.486 240.516 56.9478 240.594 57.4218C240.888 57.4183 241.181 57.4301 241.474 57.4571C241.685 57.2688 241.861 57.0437 241.992 56.7927C242.343 56.1059 242.255 55.3142 241.976 54.6203V54.6203ZM243.148 55.3048C242.957 54.9449 242.668 54.647 242.315 54.4459C242.569 55.0574 242.686 55.71 242.541 56.3721C242.445 56.7989 242.239 57.1929 241.944 57.5149C242.375 57.5792 242.801 57.6716 243.22 57.7917C243.237 57.7375 243.257 57.6857 243.274 57.6303C243.488 56.8716 243.532 56.0175 243.144 55.3048H243.148ZM247.17 62.609C247.231 61.8863 247.064 61.1626 246.691 60.5414C246.001 59.3504 244.73 58.6565 243.45 58.2512C243.336 58.539 243.205 58.8192 243.056 59.09C242.719 59.697 242.318 60.2658 241.86 60.7865C241.923 60.8642 241.988 60.942 242.049 61.0221C242.153 61.1069 242.256 61.1929 242.356 61.2836C243.25 62.0977 243.93 63.1556 244.184 64.3467H244.487C245.08 64.3467 245.674 64.3467 246.266 64.3467C246.763 63.8957 247.082 63.2802 247.165 62.6125L247.17 62.609ZM245.81 64.7178C245.291 64.7178 244.771 64.7178 244.25 64.7178C244.268 64.8533 244.283 64.9899 244.29 65.1266C244.398 65.2071 244.502 65.2932 244.601 65.3846C245.024 65.2058 245.427 64.9836 245.805 64.7213L245.81 64.7178ZM245.471 67.4616C245.283 66.8532 244.957 66.297 244.519 65.837L244.273 65.9359C244.206 66.7144 243.93 67.46 243.474 68.093C243.285 68.3469 243.064 68.5757 242.818 68.774C243.078 68.8635 243.338 68.9554 243.594 69.0497C244.297 69.294 244.981 69.5888 245.642 69.9321C245.771 69.107 245.711 68.2632 245.466 67.4651L245.471 67.4616ZM245.682 74.7199C246.296 74.4159 246.988 74.0554 247.323 73.424C247.94 72.2459 246.894 71.1856 245.9 70.5423C245.461 72.3095 244.205 73.6855 242.672 74.6091C242.957 74.6693 243.224 74.7947 243.453 74.9755C243.622 75.1173 243.759 75.2926 243.856 75.4903C244.477 75.2694 245.085 75.0134 245.677 74.7234L245.682 74.7199ZM239.789 80.9355C240.988 80.33 242.234 79.4558 243.002 78.3296C243.413 77.7264 243.838 76.7356 243.645 75.9592C243.325 76.0676 243.004 76.1725 242.679 76.2644C241.185 76.6774 239.653 76.9375 238.107 77.0407C237.103 77.1092 236.095 77.1254 235.089 77.089C234.922 77.5563 234.723 78.011 234.492 78.4497C233.888 79.589 233.069 80.6646 232.054 81.4704C233.314 81.9057 234.647 82.0826 235.976 81.9908C237.304 81.8989 238.601 81.5401 239.789 80.9355V80.9355ZM233.72 79.0258C234.114 78.4141 234.441 77.7606 234.693 77.0772C234.254 77.0572 233.815 77.0313 233.377 76.9948C231.86 76.8675 230.361 76.6131 228.854 76.4057C228.306 76.3315 227.755 76.2644 227.203 76.2184C227.187 76.6579 227.115 77.0935 226.988 77.5143C228.128 79.2174 229.749 80.5396 231.641 81.3113C232.465 80.682 233.169 79.909 233.72 79.0294V79.0258ZM225.927 82.3375C227.441 82.5648 229.106 82.5872 230.532 81.9664C230.791 81.8515 231.039 81.7168 231.277 81.5635C231.229 81.5423 231.18 81.5246 231.133 81.5022C229.411 80.7232 227.927 79.4956 226.836 77.9467C226.703 78.2758 226.533 78.5888 226.331 78.8797C225.582 79.9427 224.467 80.6887 223.203 80.9732C222.767 81.0671 222.32 81.0918 221.877 81.0463C223.153 81.6843 224.519 82.121 225.927 82.341V82.3375ZM220.335 79.8635C220.687 80.3559 221.319 80.5974 221.896 80.6728C223.197 80.8436 224.566 80.2134 225.477 79.3086C225.974 78.8165 226.351 78.2163 226.579 77.5544C226.298 77.1095 226.056 76.6413 225.855 76.1548C225.389 76.1513 224.923 76.1749 224.46 76.2255C223.077 76.3833 221.469 76.8734 220.55 77.9926C220.112 78.5298 219.908 79.272 220.335 79.8752V79.8635ZM214.656 67.5122C214.248 68.1526 213.979 68.8724 213.866 69.6246C213.824 69.9223 213.806 70.2229 213.811 70.5235C213.811 70.6578 213.818 70.7921 213.832 70.9264C213.843 71.0607 213.855 71.162 213.867 71.2398C213.963 71.7752 214.117 72.2986 214.326 72.8007C215.293 75.2579 216.867 77.4275 218.898 79.1059C219.223 79.3769 219.564 79.629 219.91 79.8717C219.332 78.7796 220.223 77.585 221.15 76.9748C222.523 76.0711 224.105 75.7849 225.715 75.7766C225.333 74.7023 225.165 73.5631 225.22 72.4237C225.109 72.3224 224.993 72.2258 224.869 72.1328C224.356 72.8744 223.687 73.4937 222.91 73.947C221.876 74.5301 220.66 74.6949 219.51 74.4077C218.431 74.1391 217.422 73.4534 216.952 72.4167C216.441 71.2904 216.57 70.0027 216.933 68.8376C216.597 68.1521 216.419 67.3988 216.415 66.6346C216.242 66.4556 216.079 66.2672 215.927 66.0702C215.433 66.4863 215.004 66.9753 214.656 67.5205V67.5122Z" fill="#DAE1F0"/>
<path d="M157.901 42.2362L153.704 42.1691C153.406 42.1644 153.119 42.2787 152.905 42.4868C152.691 42.6949 152.569 42.9798 152.564 43.2789C152.559 43.5779 152.673 43.8665 152.88 44.0813C153.087 44.296 153.371 44.4193 153.668 44.424L157.865 44.49C158.157 44.4863 158.437 44.3683 158.643 44.1611C158.85 43.9538 158.969 43.6737 158.973 43.3803C158.978 43.0868 158.868 42.8031 158.668 42.5895C158.468 42.3759 158.192 42.2491 157.901 42.2362V42.2362Z" fill="#11192B"/>
<path d="M173.617 42.4787L170.358 42.4269C169.881 42.4186 169.484 42.9205 169.474 43.5402C169.465 44.1598 169.847 44.6735 170.323 44.6806L173.582 44.7324C174.058 44.7395 174.456 44.2388 174.465 43.6191C174.474 42.9994 174.093 42.4858 173.617 42.4787Z" fill="#11192B"/>
<path d="M167.325 55.9128L167.194 55.5347C167.077 56.39 166.578 57.1498 165.806 57.3902L163.922 57.9792C163.272 58.1807 162.691 57.8261 162.354 57.2571L162.312 57.4715C162.058 58.758 163.054 59.896 164.14 59.5591L166.025 58.97C167.153 58.6178 167.765 57.1805 167.325 55.9128Z" fill="#91A7D3"/>
<path d="M157.153 49.4367C157.136 50.5135 156.566 51.3782 155.863 51.3676C155.16 51.357 154.623 50.4746 154.639 49.3978C154.655 48.321 155.225 47.4563 155.929 47.4669C156.632 47.4775 157.174 48.3599 157.153 49.4367Z" fill="#11192B"/>
<path d="M155.93 47.4668L158.062 47.501L156.727 48.8098L155.93 47.4668Z" fill="#11192B"/>
<path d="M172.227 49.676C172.211 50.7527 171.635 51.6163 170.937 51.6057C170.24 51.5951 169.697 50.7127 169.713 49.6359C169.73 48.5591 170.3 47.6944 171.003 47.7062C171.706 47.718 172.243 48.598 172.227 49.676Z" fill="#11192B"/>
<path d="M171.003 47.7061L173.137 47.739L171.801 49.0479L171.003 47.7061Z" fill="#11192B"/>
<path d="M157.197 62.6748C157.33 63.8682 157.442 65.0569 160.003 65.4481C160.003 65.4481 164.282 66.1361 163.917 63.3169L157.197 62.6748Z" fill="white"/>
<path d="M252.662 159.161H275.741L275.507 158.234L277.383 146.003L276.393 146.285C274.835 146.725 270.467 146.255 268.89 145.988L268.905 145.914L268.188 145.817C261.797 144.962 245.855 143.461 235.878 147.992L236.087 148.649L235.83 148.012C232.535 149.46 230.789 153.128 231.672 156.73C232.863 161.584 235.18 171.408 237.313 182.674C237.387 183.11 237.608 183.508 237.938 183.801C238.269 184.093 238.689 184.263 239.129 184.281L244.785 184.453H244.842C245.104 184.452 245.362 184.396 245.601 184.289C245.84 184.181 246.054 184.026 246.229 183.831C246.414 183.626 246.555 183.386 246.644 183.125C246.732 182.863 246.767 182.586 246.745 182.311C246.228 175.667 245.004 168.739 244.019 163.173C243.902 162.506 243.788 161.855 243.676 161.22C243.632 160.975 243.64 160.723 243.7 160.482C243.759 160.24 243.869 160.014 244.021 159.818C244.174 159.623 244.366 159.461 244.585 159.345C244.804 159.229 245.044 159.16 245.291 159.144C247.746 158.997 250.208 159.003 252.662 159.161Z" fill="#273B63"/>
<path fill-rule="evenodd" clip-rule="evenodd" d="M251.872 129.892C251.872 129.892 250.141 135.205 249.461 137.827C249.309 138.416 248.559 139.024 247.975 138.878C246.276 138.458 244.591 137.936 242.895 137.41C240.896 136.791 238.88 136.166 236.807 135.698C236.773 135.675 236.739 135.652 236.704 135.63L236.326 135.382C235.921 135.182 235.506 134.98 235.077 134.941C234.774 134.925 234.47 134.954 234.175 135.025L232.591 135.325C232.33 135.374 232.067 135.425 231.811 135.501C231.753 135.511 231.701 135.544 231.666 135.591C231.65 135.63 231.645 135.673 231.653 135.715C231.66 135.757 231.679 135.795 231.707 135.827C231.762 135.888 231.834 135.932 231.913 135.952C232.119 136 232.333 136.004 232.541 135.964L233.46 135.846C233.66 135.821 233.877 135.8 234.068 135.908C234.091 135.918 234.11 135.936 234.122 135.958C234.159 136.032 234.064 136.081 233.991 136.084L232.141 136.164C232.042 136.171 231.943 136.169 231.844 136.157C231.59 136.117 231.357 135.955 231.129 135.797C231.098 135.775 231.067 135.753 231.035 135.731C230.895 135.636 230.694 135.556 230.606 135.689C230.537 135.792 230.595 135.952 230.668 136.068C230.783 136.241 230.917 136.399 231.068 136.54C231.53 136.997 232.007 137.434 232.498 137.851C232.648 137.989 232.815 138.106 232.997 138.197C233.166 138.263 233.348 138.293 233.529 138.284C233.711 138.276 233.889 138.229 234.052 138.148C234.233 138.068 234.403 137.966 234.574 137.863C234.71 137.78 234.847 137.698 234.99 137.627C235.312 137.467 235.672 137.365 236.034 137.469C236.208 137.52 236.413 137.569 236.613 137.561C237.176 137.836 237.748 138.118 238.327 138.402C241.969 140.194 245.876 142.115 249.402 143.516C251.206 144.52 252.754 142.668 252.919 142.369C253.918 140.552 255.631 136.011 256.772 131.804L251.872 129.892Z" fill="white"/>
<path fill-rule="evenodd" clip-rule="evenodd" d="M236.807 135.698C238.88 136.166 240.896 136.791 242.895 137.41C244.591 137.936 246.276 138.458 247.975 138.878C248.559 139.024 249.309 138.416 249.461 137.827C250.068 135.49 251.508 131.014 251.814 130.069C251.851 129.954 251.872 129.892 251.872 129.892L256.772 131.804C255.631 136.011 253.918 140.552 252.919 142.369C252.754 142.668 251.206 144.52 249.402 143.516C245.876 142.115 241.969 140.194 238.327 138.402C237.748 138.118 237.176 137.836 236.613 137.561C236.413 137.569 236.208 137.52 236.034 137.469C235.672 137.365 235.312 137.467 234.99 137.627C234.847 137.698 234.71 137.78 234.574 137.863C234.403 137.966 234.233 138.068 234.052 138.148C233.889 138.229 233.711 138.276 233.529 138.284C233.348 138.293 233.166 138.263 232.997 138.197C232.815 138.106 232.648 137.989 232.498 137.851C232.007 137.434 231.53 136.997 231.068 136.54C230.917 136.399 230.783 136.241 230.668 136.068C230.595 135.952 230.537 135.792 230.606 135.689C230.694 135.556 230.895 135.636 231.035 135.731C231.067 135.753 231.098 135.775 231.129 135.797C231.357 135.955 231.59 136.117 231.844 136.157C231.919 136.166 231.995 136.17 232.07 136.168C232.094 136.167 232.117 136.166 232.141 136.164L233.991 136.084C234.064 136.081 234.159 136.032 234.122 135.958C234.11 135.936 234.091 135.918 234.068 135.908C233.877 135.8 233.66 135.821 233.46 135.846L232.541 135.964C232.406 135.99 232.269 135.997 232.133 135.986C232.131 135.986 232.129 135.986 232.127 135.986C232.111 135.984 232.094 135.982 232.078 135.981C232.023 135.974 231.968 135.964 231.913 135.952C231.834 135.932 231.762 135.888 231.707 135.827C231.679 135.795 231.66 135.757 231.653 135.715C231.645 135.673 231.65 135.63 231.666 135.591C231.701 135.544 231.753 135.511 231.811 135.501C232.067 135.425 232.33 135.374 232.591 135.325L234.175 135.025C234.47 134.954 234.774 134.925 235.077 134.941C235.506 134.98 235.921 135.182 236.326 135.382L236.704 135.63C236.739 135.652 236.773 135.675 236.807 135.698ZM236.234 135.544L236.604 135.787L236.605 135.788C236.638 135.809 236.671 135.83 236.702 135.852L236.731 135.872L236.766 135.88C238.831 136.347 240.84 136.969 242.84 137.589L242.843 137.589C244.537 138.114 246.226 138.638 247.93 139.059C248.297 139.151 248.688 139.003 248.99 138.779C249.295 138.553 249.552 138.22 249.641 137.874C249.98 136.568 250.581 134.588 251.099 132.932C251.358 132.104 251.595 131.359 251.768 130.82C251.854 130.551 251.924 130.333 251.973 130.183C251.978 130.167 251.983 130.151 251.988 130.137L256.549 131.917C255.409 136.071 253.732 140.504 252.756 142.278C252.726 142.332 252.612 142.49 252.421 142.684C252.233 142.876 251.98 143.093 251.681 143.27C251.084 143.624 250.318 143.813 249.492 143.353L249.481 143.347L249.47 143.343C245.952 141.945 242.052 140.027 238.409 138.235L238.408 138.234C237.83 137.95 237.258 137.668 236.695 137.393L236.653 137.372L236.606 137.374C236.437 137.381 236.257 137.339 236.086 137.29L236.085 137.29C235.658 137.167 235.247 137.291 234.907 137.46C234.758 137.534 234.616 137.62 234.481 137.701L234.478 137.703C234.306 137.807 234.146 137.903 233.978 137.977L233.973 137.978L233.969 137.981C233.829 138.05 233.677 138.09 233.521 138.098C233.368 138.105 233.215 138.081 233.072 138.026C232.909 137.943 232.759 137.838 232.625 137.714L232.622 137.711L232.618 137.708C232.13 137.294 231.657 136.86 231.199 136.407L231.197 136.405L231.195 136.403C231.055 136.272 230.93 136.126 230.824 135.966C230.795 135.921 230.774 135.872 230.765 135.833C230.763 135.822 230.762 135.813 230.761 135.807C230.763 135.807 230.764 135.807 230.766 135.808C230.81 135.816 230.871 135.845 230.931 135.886C230.962 135.907 230.992 135.928 231.023 135.95L231.04 135.961C231.255 136.112 231.519 136.295 231.816 136.341L231.819 136.342L231.821 136.342C231.931 136.356 232.042 136.358 232.152 136.35L233.997 136.27C233.997 136.27 233.998 136.27 233.998 136.27C234.066 136.268 234.147 136.245 234.211 136.195C234.245 136.169 234.284 136.127 234.304 136.066C234.325 136.001 234.317 135.933 234.289 135.875L234.287 135.87L234.284 135.866C234.254 135.812 234.208 135.769 234.153 135.742C233.904 135.604 233.629 135.637 233.437 135.66L233.436 135.661L232.511 135.779L232.505 135.78C232.324 135.815 232.137 135.812 231.957 135.77C231.914 135.759 231.875 135.735 231.845 135.702L231.845 135.701C231.841 135.697 231.838 135.692 231.837 135.687C231.839 135.685 231.842 135.685 231.845 135.684L231.855 135.682L231.864 135.68C232.109 135.607 232.363 135.558 232.625 135.508L234.214 135.207L234.218 135.206C234.495 135.14 234.779 135.113 235.063 135.127C235.448 135.163 235.827 135.344 236.234 135.544Z" fill="#273B63"/>
<path d="M256.799 114.284C255.258 116.137 255.423 115.066 254.584 117.329C252.983 121.643 249.983 126.955 250.116 129.221C250.209 130.826 253.684 132.86 255.68 133.06C255.919 133.083 256.159 133.028 256.364 132.905C256.57 132.781 256.731 132.594 256.824 132.371C257.058 131.809 257.41 130.998 257.618 130.519C257.708 130.314 257.798 130.105 257.89 129.908C259.225 127.025 260.469 124.086 261.897 121.249C263.027 119.01 261.856 116.143 260.171 114.24C259.959 114 259.698 113.808 259.405 113.678C259.112 113.548 258.795 113.482 258.475 113.487C258.155 113.491 257.84 113.564 257.551 113.702C257.262 113.839 257.005 114.038 256.799 114.284V114.284Z" fill="#B378FF"/>
<path d="M274.915 115.526C274.915 115.526 269.1 106.047 256.904 113.985C256.328 114.4 255.821 114.903 255.4 115.475C254.779 116.335 255.422 117.418 255.291 118.634C255.135 120.084 255.581 124.907 255.849 126.364C256.676 130.88 256.238 134.434 256.233 138.511C256.252 140.663 255.266 145.439 255.128 147.7C255.227 148.437 255.689 150.292 256.153 150.746C256.505 151.089 259.911 153.383 264.243 153.776C268.367 154.151 268.833 151.302 276.435 151.628C276.903 151.642 277.358 151.477 277.708 151.166C278.058 150.854 278.276 150.42 278.318 149.952C279.229 140.75 277.38 135.226 276.24 121.641C276.329 120.978 276.315 117.591 274.915 115.526Z" fill="#B378FF"/>
<path d="M279.865 114.441C278.999 113.66 277.826 113.046 277.54 111.911C277.336 111.104 277.657 110.262 277.699 109.427C277.76 108.249 277.249 107.093 276.454 106.231C275.659 105.368 274.602 104.783 273.494 104.398C273.044 104.242 272.576 104.111 272.186 103.84C271.774 103.554 271.482 103.133 271.169 102.74C270.217 101.534 267.307 100.057 266.733 102.504C266.273 104.467 268.585 105.418 269.155 106.955C269.447 107.741 269.239 108.645 268.821 109.375C268.402 110.105 267.789 110.705 267.205 111.314C265.762 112.821 264.392 114.586 264.181 116.656C264.011 118.336 264.63 119.978 265.257 121.539C265.843 122.989 266.498 124.046 267.797 124.912C268.783 125.569 270.019 126.227 271.207 126.277C273.728 126.386 276.353 125.924 278.447 124.495C280.541 123.066 281.997 120.555 281.715 118.046C281.552 116.659 280.895 115.378 279.865 114.441V114.441Z" fill="#91A7D3"/>
<path d="M277.723 159.424C277.81 159.424 277.895 159.393 277.962 159.336C278.029 159.278 278.073 159.199 278.087 159.112L280.808 142.127C280.824 142.03 280.8 141.93 280.743 141.851C280.685 141.771 280.599 141.717 280.502 141.701C280.405 141.686 280.306 141.71 280.226 141.767C280.147 141.825 280.093 141.912 280.078 142.01L277.357 158.994C277.342 159.092 277.365 159.191 277.423 159.271C277.481 159.35 277.567 159.404 277.664 159.42C277.683 159.423 277.703 159.424 277.723 159.424V159.424Z" fill="#324B7F"/>
<path d="M258.884 159.234C258.972 159.233 259.057 159.202 259.123 159.144C259.19 159.087 259.235 159.007 259.248 158.92L261.969 141.935C261.985 141.838 261.961 141.739 261.904 141.659C261.846 141.579 261.76 141.525 261.663 141.51C261.566 141.494 261.467 141.518 261.387 141.575C261.308 141.633 261.255 141.72 261.239 141.818L258.518 158.808C258.503 158.906 258.527 159.005 258.584 159.085C258.642 159.164 258.728 159.218 258.825 159.234C258.845 159.235 258.864 159.235 258.884 159.234V159.234Z" fill="#324B7F"/>
<path d="M255.663 133.32C255.919 133.317 256.168 133.238 256.379 133.094C256.59 132.949 256.754 132.746 256.851 132.508C257.085 131.946 257.437 131.138 257.643 130.661L257.695 130.543C257.768 130.377 257.839 130.212 257.913 130.055C258.366 129.077 258.808 128.093 259.251 127.11C260.098 125.225 260.974 123.274 261.917 121.403C261.935 121.36 261.937 121.311 261.921 121.267C261.905 121.222 261.872 121.186 261.83 121.164C261.789 121.143 261.74 121.138 261.695 121.151C261.65 121.164 261.611 121.194 261.587 121.235C260.641 123.12 259.763 125.067 258.913 126.957C258.471 127.941 258.03 128.923 257.578 129.902C257.504 130.06 257.43 130.228 257.356 130.397L257.305 130.515C257.095 130.993 256.75 131.804 256.511 132.367C256.436 132.549 256.306 132.704 256.14 132.808C255.973 132.912 255.778 132.962 255.582 132.949C253.561 132.763 250.241 130.727 250.156 129.28C250.153 129.231 250.131 129.185 250.094 129.152C250.058 129.12 250.01 129.103 249.961 129.106C249.912 129.109 249.866 129.131 249.834 129.167C249.801 129.204 249.785 129.252 249.787 129.301C249.891 131.077 253.509 133.131 255.55 133.319C255.587 133.319 255.625 133.32 255.663 133.32Z" fill="#509283"/>
<path d="M280.444 145.187H260.877C260.438 145.187 260.005 145.093 259.605 144.913C259.205 144.733 258.847 144.469 258.556 144.14C258.264 143.811 258.045 143.424 257.913 143.004C257.781 142.584 257.738 142.141 257.789 141.703L260.039 122.251C260.273 120.18 262.019 118.481 263.907 118.481H282.542C284.431 118.481 285.78 120.177 285.541 122.251L283.172 142.75C283.093 143.422 282.772 144.041 282.269 144.49C281.766 144.939 281.116 145.187 280.444 145.187V145.187Z" fill="#324B7F"/>
<path d="M281.302 145.187H262.257C261.852 145.188 261.451 145.102 261.082 144.936C260.712 144.77 260.382 144.528 260.112 144.224C259.843 143.921 259.64 143.563 259.518 143.175C259.396 142.787 259.357 142.378 259.404 141.974L261.69 122.251C261.925 120.18 263.672 118.481 265.559 118.481H284.194C286.083 118.481 287.433 120.177 287.193 122.251L284.915 141.953C284.813 142.844 284.388 143.665 283.722 144.262C283.056 144.858 282.194 145.187 281.302 145.187V145.187Z" fill="#DAE1F0"/>
<defs>
<linearGradient id="paint0_linear_102_693" x1="126.929" y1="114.889" x2="126.929" y2="151.812" gradientUnits="userSpaceOnUse">
<stop stop-color="#F778B9"/>
<stop offset="0.637014" stop-color="#B378FF"/>
<stop offset="1" stop-color="#486DB7" stop-opacity="0.87"/>
</linearGradient>
</defs>
</svg>
