<svg width="256" height="39" viewBox="0 0 256 39" fill="none" xmlns="http://www.w3.org/2000/svg">
<path d="M40.6297 16.3601C39.9558 13.2612 38.458 10.3453 36.2577 7.8493C38.7426 5.24207 41.7259 3.03385 45.074 1.32343C57.2701 25.7955 34.914 37.0617 34.914 37.0617H34.5316C39.9165 31.6506 42.025 24.5265 40.6297 16.3601Z" fill="url(#paint0_linear_109_73)"/>
<path d="M5.78796 24.3808C11.0223 24.5415 16.1395 25.7837 20.723 28.0063C20.0516 26.835 19.5349 25.6004 19.183 24.3264C17.1159 16.7944 19.9788 7.41348 23.0175 0.271271C27.3688 1.59457 32.0406 4.99347 35.2549 8.93619C37.1975 11.1812 38.5205 13.7902 39.1205 16.5588C40.7122 25.831 37.5288 32.5472 32.361 37.1606L32.1336 37.3691C32.1336 37.3691 21.3845 38.9734 12.9816 35.5291C3.25572 31.523 0.826843 24.843 0.826843 24.843C2.4481 24.4879 4.11781 24.3323 5.78796 24.3808Z" fill="url(#paint1_linear_109_73)"/>
<path d="M35.2551 8.93628L35.0794 8.71875C29.9946 14.8446 27.3143 22.2521 27.4413 29.8282C27.4379 32.4774 27.7461 35.1199 28.3612 37.7136C29.6242 37.6661 30.8835 37.5602 32.1337 37.3964C32.2164 37.3329 32.2888 37.2514 32.3714 37.1788C37.5393 32.5473 40.7123 25.8311 39.1206 16.5589C38.5207 13.7903 37.1976 11.1813 35.2551 8.93628Z" fill="url(#paint2_linear_109_73)"/>
<path d="M75.6776 28.5089L74.4174 17.0449L70.0801 28.5089H65.939L61.4055 16.8972L60.3138 28.5089H56.1727L58.4116 11.1044C59.0001 10.835 59.9512 10.5882 60.6229 10.5882C62.1902 10.5882 63.3652 11.0053 63.8407 12.2324L68.5148 24.4576L73.2999 11.1531C73.8884 10.8089 74.671 10.5882 75.4259 10.5882C77.021 10.5882 77.8036 11.0783 78.0572 12.8215L80.2962 28.5072H75.6776V28.5089Z" fill="#F778B9"/>
<path d="M93.558 24.9255L95.264 27.3066C93.5283 28.2642 91.5984 28.7544 89.2485 28.7544C84.7983 28.7544 82.1689 26.4706 82.1689 22.5931C82.1689 18.3714 84.9389 15.8426 89.6685 15.8426C93.2231 15.8426 95.2937 17.4138 95.2937 19.9913C95.2937 22.4714 92.6921 23.9435 88.3529 23.9435C87.7367 23.9435 87.1224 23.8949 86.5062 23.8445C86.8133 25.1462 87.7367 25.9058 89.5556 25.9058C91.1506 25.9075 92.4365 25.5634 93.558 24.9255ZM86.421 21.7102C87.065 21.7588 87.7089 21.7832 88.2954 21.7832C90.0866 21.7832 91.0931 21.194 91.0931 20.1633C91.0931 19.3291 90.4215 18.7885 89.2465 18.7885C87.6792 18.7885 86.6449 19.8679 86.421 21.7102Z" fill="#F778B9"/>
<path d="M98.4526 34.4009L96.5207 31.6757C97.3608 31.4063 97.975 30.5964 97.975 29.0496V16.0892H102.312V29.7378C102.314 32.4126 100.636 33.664 98.4526 34.4009ZM100.133 14.1739C101.617 14.1739 102.54 13.437 102.54 12.1369C102.54 10.8612 101.617 10.1486 100.133 10.1486C98.6487 10.1486 97.7254 10.8612 97.7254 12.1369C97.7254 13.437 98.6487 14.1739 100.133 14.1739Z" fill="#F778B9"/>
<path d="M104.493 22.2993C104.493 18.2497 107.263 15.8426 112.02 15.8426C116.778 15.8426 119.577 18.248 119.577 22.2993C119.577 26.3506 116.779 28.7561 112.02 28.7561C107.261 28.7561 104.493 26.3489 104.493 22.2993ZM115.182 22.2993C115.182 20.139 114.008 18.8389 112.048 18.8389C110.088 18.8389 108.913 20.1407 108.913 22.2993C108.913 24.4597 110.088 25.7354 112.048 25.7354C114.008 25.7354 115.182 24.4597 115.182 22.2993Z" fill="#F778B9"/>
<path d="M131.938 16.2597L130.678 19.6228C130.202 19.3534 129.586 19.1813 128.914 19.1813C127.123 19.1813 126.004 20.2363 126.004 23.3056V28.5093H121.666V16.3588C122.421 16.0633 123.234 15.8426 123.989 15.8426C125.164 15.8426 125.863 16.7255 125.863 18.0029C126.899 16.4074 128.326 15.8426 129.78 15.8426C130.537 15.8426 131.294 16.0147 131.938 16.2597Z" fill="#F778B9"/>
<path d="M140.672 28.7567C136.083 28.7567 133.339 26.3513 133.339 22.2756C133.339 18.226 136.362 15.8449 140.307 15.8449C142.043 15.8449 144.841 16.4585 145.736 19.3314L142.574 20.4368C142.209 19.4792 141.538 18.8413 140.531 18.8413C138.768 18.8413 137.734 20.1187 137.734 22.2774C137.734 24.4621 138.994 25.7378 141.035 25.7378C142.35 25.7378 143.862 25.3207 144.841 24.6828L146.212 27.3333C144.674 28.3153 142.604 28.7567 140.672 28.7567Z" fill="url(#paint3_linear_109_73)"/>
<path d="M146.794 22.2976C146.794 18.248 149.564 15.8409 154.322 15.8409C159.079 15.8409 161.879 18.2463 161.879 22.2976C161.879 26.3489 159.079 28.7544 154.322 28.7544C149.564 28.7544 146.794 26.3472 146.794 22.2976ZM157.484 22.2976C157.484 20.1373 156.309 18.8372 154.349 18.8372C152.39 18.8372 151.215 20.139 151.215 22.2976C151.215 24.458 152.39 25.7337 154.349 25.7337C156.309 25.7337 157.484 24.458 157.484 22.2976Z" fill="url(#paint4_linear_109_73)"/>
<path d="M177.708 20.5057V28.5076H173.371V21.1679C173.371 19.7445 172.671 18.8355 171.356 18.8355C169.481 18.8355 168.306 19.7184 168.306 22.322V28.5076H163.969V16.3571C164.724 16.0616 165.536 15.8409 166.291 15.8409C167.411 15.8409 168.11 16.6508 168.166 17.8535C169.368 16.3553 171.021 15.8409 172.755 15.8409C175.889 15.8409 177.708 17.5598 177.708 20.5057Z" fill="url(#paint5_linear_109_73)"/>
<path d="M194.457 12.3077L192.554 15.0085C191.352 14.2716 189.699 13.7328 188.049 13.7328C186.509 13.7328 185.586 14.322 185.586 15.2553C185.586 16.5067 187.209 16.9986 189.168 17.6121C191.827 18.4463 194.962 19.5031 194.962 23.0365C194.962 26.6689 192.107 28.7563 187.266 28.7563C184.607 28.7563 182.144 28.0941 180.353 26.9157L181.78 24.1175C183.151 25.0508 185.138 25.6157 187.488 25.6157C189.307 25.6157 190.371 24.9535 190.371 23.8481C190.371 22.449 188.748 21.9328 186.872 21.3697C184.213 20.5598 180.995 19.5535 180.995 15.8219C180.995 12.4345 183.597 10.594 187.964 10.594C190.175 10.5905 192.525 11.1554 194.457 12.3077Z" fill="#486DB7"/>
<path d="M209.511 20.5094V28.2419C208.756 28.5356 207.971 28.7581 207.189 28.7581C206.097 28.7581 205.397 27.9725 205.314 26.8428C204.167 28.2662 202.627 28.7581 201.088 28.7581C198.262 28.7581 196.554 27.3103 196.554 24.9536C196.554 22.3517 199.045 20.8292 203.44 20.8292C203.999 20.8292 204.587 20.8292 205.175 20.8536C205.092 19.5031 204.532 18.6932 202.713 18.6932C201.482 18.6932 200.222 19.0373 199.103 19.6752L197.367 17.3184C199.158 16.3608 201.09 15.8463 203.44 15.8463C207.272 15.8446 209.511 17.5635 209.511 20.5094ZM205.172 23.0365C204.583 23.0122 204.052 23.0122 203.549 23.0122C201.702 23.0122 200.666 23.6014 200.666 24.6077C200.666 25.3933 201.169 25.9581 202.289 25.9581C203.773 25.9581 205.172 25.1482 205.172 23.0365Z" fill="#486DB7"/>
<path d="M212.558 25.1479V9.87935C213.313 9.58563 214.126 9.36316 214.881 9.36316C216.168 9.36316 216.896 10.1001 216.896 11.1307V24.8281C216.896 25.4173 217.26 25.7371 217.902 25.7371C218.35 25.7371 218.77 25.6641 219.105 25.565L219.666 27.9704C218.715 28.5109 217.734 28.756 216.531 28.756C214.042 28.756 212.558 27.456 212.558 25.1479Z" fill="#486DB7"/>
<path d="M236.335 17.6118V28.2416C235.58 28.5353 234.768 28.7577 234.013 28.7577C232.893 28.7577 232.222 27.9478 232.139 26.7938C231.019 28.2416 229.452 28.7577 227.829 28.7577C224.694 28.7577 222.876 27.0388 222.876 24.0929V16.3605C223.63 16.065 224.443 15.8443 225.198 15.8443C226.486 15.8443 227.213 16.5812 227.213 17.6118V23.4046C227.213 24.8524 227.912 25.7371 229.228 25.7371C230.964 25.7371 231.998 24.8542 231.998 22.301V16.3605C232.753 16.065 233.565 15.8443 234.32 15.8443C235.608 15.8443 236.335 16.5812 236.335 17.6118Z" fill="#486DB7"/>
<path d="M253.181 11.1304V28.2395C252.426 28.5332 251.614 28.7557 250.859 28.7557C249.767 28.7557 249.068 27.9458 248.985 26.8161C247.782 28.2638 246.074 28.7557 244.368 28.7557C241.093 28.7557 238.939 26.5223 238.939 22.7161C238.939 18.371 241.85 15.8422 246.775 15.8422C247.306 15.8422 248.036 15.8665 248.846 15.8909V9.87731C249.601 9.58358 250.413 9.36111 251.168 9.36111C252.452 9.36285 253.181 10.0998 253.181 11.1304ZM248.842 18.6908C248.198 18.6665 247.639 18.6665 247.164 18.6665C244.814 18.6665 243.33 20.1647 243.33 22.7161C243.33 24.6314 244.281 25.7593 245.989 25.7593C247.669 25.7593 248.844 24.9008 248.844 22.2972V18.6908H248.842Z" fill="#486DB7"/>
<defs>
<linearGradient id="paint0_linear_109_73" x1="47.2963" y1="4.53987" x2="28.9182" y2="12.9138" gradientUnits="userSpaceOnUse">
<stop stop-color="#B378FF"/>
<stop offset="1" stop-color="#F778B9"/>
</linearGradient>
<linearGradient id="paint1_linear_109_73" x1="35.6618" y1="3.64366" x2="10.4942" y2="33.4919" gradientUnits="userSpaceOnUse">
<stop stop-color="#B378FF"/>
<stop offset="1" stop-color="#F778B9"/>
</linearGradient>
<linearGradient id="paint2_linear_109_73" x1="38.3237" y1="11.3283" x2="22.9276" y2="18.703" gradientUnits="userSpaceOnUse">
<stop stop-color="#B378FF"/>
<stop offset="1" stop-color="#F778B9"/>
</linearGradient>
<linearGradient id="paint3_linear_109_73" x1="144.925" y1="17.007" x2="136.206" y2="26.9877" gradientUnits="userSpaceOnUse">
<stop stop-color="#B378FF"/>
<stop offset="1" stop-color="#F778B9"/>
</linearGradient>
<linearGradient id="paint4_linear_109_73" x1="160.37" y1="17.0031" x2="151.936" y2="28.3143" gradientUnits="userSpaceOnUse">
<stop stop-color="#B378FF"/>
<stop offset="1" stop-color="#F778B9"/>
</linearGradient>
<linearGradient id="paint5_linear_109_73" x1="176.334" y1="16.9809" x2="167.906" y2="27.4768" gradientUnits="userSpaceOnUse">
<stop stop-color="#B378FF"/>
<stop offset="1" stop-color="#F778B9"/>
</linearGradient>
</defs>
</svg>
