<svg width="38" height="30" viewBox="0 0 38 30" fill="none" xmlns="http://www.w3.org/2000/svg">
<path d="M31.0959 12.5695C30.5695 10.1484 29.3992 7.87033 27.6803 5.92036C29.6216 3.88346 31.9523 2.15829 34.568 0.822021C44.0962 19.9408 26.6306 28.7425 26.6306 28.7425H26.3318C30.5387 24.5152 32.186 18.9495 31.0959 12.5695Z" fill="url(#paint0_linear_128_825)"/>
<path d="M3.87587 18.8355C7.96522 18.9611 11.963 19.9316 15.5439 21.668C15.0194 20.7529 14.6157 19.7884 14.3407 18.7931C12.7258 12.9087 14.9625 5.57985 17.3365 0C20.7359 1.03383 24.3857 3.68922 26.897 6.76947C28.4145 8.52335 29.4482 10.5617 29.9169 12.7246C31.1604 19.9685 28.6734 25.2156 24.636 28.8198L24.4584 28.9827C24.4584 28.9827 16.0607 30.236 9.49589 27.5452C1.89756 24.4154 0 19.1967 0 19.1967C1.26661 18.9192 2.57107 18.7977 3.87587 18.8355Z" fill="url(#paint1_linear_128_825)"/>
<path d="M26.8971 6.76955L26.7598 6.59961C22.7873 11.3854 20.6933 17.1726 20.7926 23.0913C20.7898 25.161 21.0307 27.2255 21.5112 29.2518C22.4979 29.2147 23.4817 29.132 24.4585 29.004C24.5231 28.9544 24.5796 28.8907 24.6442 28.8341C28.6816 25.2156 31.1605 19.9686 29.917 12.7247C29.4483 10.5618 28.4147 8.52344 26.8971 6.76955Z" fill="url(#paint2_linear_128_825)"/>
<defs>
<linearGradient id="paint0_linear_128_825" x1="36.3042" y1="3.33487" x2="21.9463" y2="9.87703" gradientUnits="userSpaceOnUse">
<stop stop-color="#B378FF"/>
<stop offset="1" stop-color="#F778B9"/>
</linearGradient>
<linearGradient id="paint1_linear_128_825" x1="27.2148" y1="2.63468" x2="7.55259" y2="25.9536" gradientUnits="userSpaceOnUse">
<stop stop-color="#B378FF"/>
<stop offset="1" stop-color="#F778B9"/>
</linearGradient>
<linearGradient id="paint2_linear_128_825" x1="29.2944" y1="8.63831" x2="17.2662" y2="14.3998" gradientUnits="userSpaceOnUse">
<stop stop-color="#B378FF"/>
<stop offset="1" stop-color="#F778B9"/>
</linearGradient>
</defs>
</svg>
