<svg width="257" height="39" viewBox="0 0 257 39" fill="none" xmlns="http://www.w3.org/2000/svg">
<g clip-path="url(#clip0_102_843)">
<path d="M41.1296 16.524C40.4558 13.425 38.9579 10.5091 36.7576 8.01318C39.2426 5.40595 42.2258 3.19773 45.574 1.4873C57.77 25.9593 35.414 37.2256 35.414 37.2256H35.0316C40.4165 31.8145 42.5249 24.6904 41.1296 16.524Z" fill="white"/>
<path d="M6.28794 24.545C11.5223 24.7058 16.6394 25.948 21.223 28.1705C20.5516 26.9993 20.0349 25.7647 19.683 24.4907C17.6158 16.9587 20.4788 7.57776 23.5175 0.435547C27.8688 1.75885 32.5405 5.15774 35.7549 9.10046C37.6974 11.3454 39.0205 13.9545 39.6205 16.7231C41.2122 25.9952 38.0288 32.7115 32.8609 37.3249L32.6336 37.5334C32.6336 37.5334 21.8845 39.1376 13.4816 35.6934C3.7557 31.6873 1.32682 25.0073 1.32682 25.0073C2.94808 24.6522 4.61779 24.4966 6.28794 24.545Z" fill="white"/>
<path d="M35.7551 9.10034L35.5794 8.88281C30.4946 15.0086 27.8143 22.4162 27.9414 29.9922C27.9379 32.6415 28.2461 35.2839 28.8612 37.8777C30.1242 37.8302 31.3835 37.7243 32.6337 37.5604C32.7164 37.497 32.7888 37.4154 32.8715 37.3429C38.0393 32.7113 41.2124 25.9951 39.6207 16.7229C39.0207 13.9544 37.6976 11.3453 35.7551 9.10034Z" fill="white"/>
<path d="M76.1775 28.6731L74.9174 17.2092L70.5801 28.6731H66.439L61.9055 17.0614L60.8138 28.6731H56.6727L58.9116 11.2686C59.5001 10.9992 60.4512 10.7524 61.1229 10.7524C62.6902 10.7524 63.8651 11.1696 64.3407 12.3966L69.0148 24.6218L73.7999 11.3173C74.3883 10.9732 75.171 10.7524 75.9259 10.7524C77.5209 10.7524 78.3036 11.2426 78.5572 12.9858L80.7962 28.6714H76.1775V28.6731Z" fill="white"/>
<path d="M94.058 25.0898L95.764 27.4708C94.0283 28.4285 92.0984 28.9186 89.7485 28.9186C85.2982 28.9186 82.6689 26.6349 82.6689 22.7573C82.6689 18.5357 85.4389 16.0068 90.1685 16.0068C93.7231 16.0068 95.7937 17.578 95.7937 20.1555C95.7937 22.6357 93.1921 24.1078 88.8529 24.1078C88.2366 24.1078 87.6224 24.0591 87.0062 24.0087C87.3133 25.3105 88.2366 26.07 90.0556 26.07C91.6506 26.0717 92.9365 25.7276 94.058 25.0898ZM86.921 21.8744C87.565 21.9231 88.2089 21.9474 88.7954 21.9474C90.5866 21.9474 91.5931 21.3582 91.5931 20.3276C91.5931 19.4933 90.9214 18.9528 89.7465 18.9528C88.1792 18.9528 87.1449 20.0321 86.921 21.8744Z" fill="white"/>
<path d="M98.9525 34.5653L97.0207 31.8401C97.8608 31.5707 98.475 30.7608 98.475 29.2139V16.2535H102.812V29.9022C102.814 32.577 101.136 33.8284 98.9525 34.5653ZM100.633 14.3382C102.117 14.3382 103.04 13.6013 103.04 12.3013C103.04 11.0256 102.117 10.313 100.633 10.313C99.1487 10.313 98.2254 11.0256 98.2254 12.3013C98.2254 13.6013 99.1487 14.3382 100.633 14.3382Z" fill="white"/>
<path d="M104.993 22.4636C104.993 18.414 107.763 16.0068 112.52 16.0068C117.277 16.0068 120.077 18.4123 120.077 22.4636C120.077 26.5149 117.279 28.9203 112.52 28.9203C107.761 28.9203 104.993 26.5132 104.993 22.4636ZM115.682 22.4636C115.682 20.3032 114.507 19.0032 112.548 19.0032C110.588 19.0032 109.413 20.305 109.413 22.4636C109.413 24.6239 110.588 25.8996 112.548 25.8996C114.507 25.8996 115.682 24.6239 115.682 22.4636Z" fill="white"/>
<path d="M132.438 16.424L131.178 19.787C130.702 19.5176 130.086 19.3456 129.414 19.3456C127.623 19.3456 126.504 20.4005 126.504 23.4699V28.6735H122.166V16.523C122.921 16.2276 123.734 16.0068 124.489 16.0068C125.663 16.0068 126.363 16.8897 126.363 18.1672C127.399 16.5717 128.826 16.0068 130.28 16.0068C131.037 16.0068 131.794 16.1789 132.438 16.424Z" fill="white"/>
<path d="M141.172 28.9211C136.583 28.9211 133.839 26.5156 133.839 22.44C133.839 18.3904 136.862 16.0093 140.807 16.0093C142.543 16.0093 145.341 16.6228 146.236 19.4958L143.074 20.6011C142.709 19.6435 142.038 19.0056 141.031 19.0056C139.268 19.0056 138.233 20.2831 138.233 22.4417C138.233 24.6264 139.494 25.9021 141.534 25.9021C142.85 25.9021 144.362 25.485 145.341 24.8471L146.712 27.4976C145.174 28.4796 143.104 28.9211 141.172 28.9211Z" fill="white"/>
<path d="M147.294 22.4621C147.294 18.4125 150.064 16.0054 154.822 16.0054C159.579 16.0054 162.379 18.4108 162.379 22.4621C162.379 26.5134 159.579 28.9188 154.822 28.9188C150.064 28.9188 147.294 26.5117 147.294 22.4621ZM157.984 22.4621C157.984 20.3018 156.809 19.0017 154.849 19.0017C152.89 19.0017 151.715 20.3035 151.715 22.4621C151.715 24.6225 152.89 25.8982 154.849 25.8982C156.809 25.8982 157.984 24.6225 157.984 22.4621Z" fill="white"/>
<path d="M178.208 20.6702V28.6721H173.871V21.3324C173.871 19.909 173.171 19 171.856 19C169.981 19 168.806 19.8829 168.806 22.4864V28.6721H164.469V16.5216C165.224 16.2261 166.036 16.0054 166.791 16.0054C167.911 16.0054 168.61 16.8153 168.666 18.018C169.868 16.5198 171.521 16.0054 173.255 16.0054C176.389 16.0054 178.208 17.7243 178.208 20.6702Z" fill="white"/>
<path d="M194.957 12.472L193.054 15.1729C191.852 14.436 190.199 13.8972 188.549 13.8972C187.009 13.8972 186.086 14.4864 186.086 15.4197C186.086 16.6711 187.709 17.1629 189.668 17.7764C192.327 18.6107 195.462 19.6674 195.462 23.2008C195.462 26.8332 192.607 28.9206 187.766 28.9206C185.107 28.9206 182.644 28.2584 180.853 27.08L182.28 24.2818C183.651 25.2152 185.638 25.78 187.988 25.78C189.807 25.78 190.871 25.1178 190.871 24.0124C190.871 22.6133 189.248 22.0971 187.372 21.534C184.713 20.7241 181.495 19.7178 181.495 15.9863C181.495 12.5989 184.097 10.7583 188.464 10.7583C190.675 10.7548 193.025 11.3197 194.957 12.472Z" fill="white"/>
<path d="M210.011 20.6739V28.4063C209.256 28.7001 208.471 28.9225 207.689 28.9225C206.597 28.9225 205.897 28.1369 205.814 27.0072C204.667 28.4307 203.127 28.9225 201.588 28.9225C198.762 28.9225 197.054 27.4748 197.054 25.118C197.054 22.5162 199.545 20.9937 203.94 20.9937C204.499 20.9937 205.087 20.9937 205.675 21.018C205.592 19.6675 205.031 18.8576 203.213 18.8576C201.982 18.8576 200.722 19.2018 199.602 19.8396L197.867 17.4829C199.658 16.5252 201.59 16.0107 203.94 16.0107C207.772 16.009 210.011 17.7279 210.011 20.6739ZM205.671 23.201C205.083 23.1766 204.552 23.1766 204.049 23.1766C202.202 23.1766 201.166 23.7658 201.166 24.7721C201.166 25.5577 201.669 26.1226 202.789 26.1226C204.273 26.1226 205.671 25.3127 205.671 23.201Z" fill="white"/>
<path d="M213.058 25.312V10.0435C213.813 9.74981 214.626 9.52734 215.381 9.52734C216.668 9.52734 217.396 10.2643 217.396 11.2949V24.9923C217.396 25.5814 217.76 25.9012 218.402 25.9012C218.85 25.9012 219.27 25.8282 219.605 25.7292L220.166 28.1346C219.215 28.6751 218.234 28.9202 217.031 28.9202C214.542 28.9202 213.058 27.6201 213.058 25.312Z" fill="white"/>
<path d="M236.835 17.7759V28.4056C236.08 28.6993 235.268 28.9218 234.513 28.9218C233.393 28.9218 232.722 28.1119 232.639 26.9578C231.519 28.4056 229.952 28.9218 228.329 28.9218C225.194 28.9218 223.376 27.2029 223.376 24.2569V16.5245C224.13 16.229 224.943 16.0083 225.698 16.0083C226.986 16.0083 227.713 16.7452 227.713 17.7759V23.5687C227.713 25.0164 228.412 25.9011 229.728 25.9011C231.464 25.9011 232.498 25.0182 232.498 22.465V16.5245C233.253 16.229 234.065 16.0083 234.82 16.0083C236.108 16.0083 236.835 16.7452 236.835 17.7759Z" fill="white"/>
<path d="M253.681 11.2947V28.4038C252.926 28.6975 252.114 28.92 251.359 28.92C250.267 28.92 249.568 28.1101 249.485 26.9803C248.282 28.4281 246.574 28.92 244.868 28.92C241.593 28.92 239.439 26.6866 239.439 22.8803C239.439 18.5353 242.35 16.0065 247.275 16.0065C247.806 16.0065 248.536 16.0308 249.346 16.0551V10.0416C250.101 9.74786 250.913 9.52539 251.668 9.52539C252.952 9.52713 253.681 10.264 253.681 11.2947ZM249.342 18.8551C248.698 18.8308 248.139 18.8308 247.664 18.8308C245.314 18.8308 243.83 20.3289 243.83 22.8803C243.83 24.7956 244.781 25.9236 246.489 25.9236C248.169 25.9236 249.344 25.065 249.344 22.4615V18.8551H249.342Z" fill="white"/>
</g>
<defs>
<clipPath id="clip0_102_843">
<rect width="256" height="38.6719" fill="white" transform="translate(0.5 0.164062)"/>
</clipPath>
</defs>
</svg>
